<?xml version="1.0" standalone="no"?>
<!DOCTYPE svg PUBLIC "-//W3C//DTD SVG 1.1//EN" "http://www.w3.org/Graphics/SVG/1.1/DTD/svg11.dtd" >
<svg xmlns="http://www.w3.org/2000/svg" xmlns:xlink="http://www.w3.org/1999/xlink" version="1.1">
<metadata>
Created by FontForge 20190801 at Fri May  5 11:19:00 2017
 By root
Copyright (c) 2011 by Anna Giedrys (http://ancymonic.com), with Reserved Font Names "Signika".
</metadata>
<defs>
<font id="SignikaNegative-SemiBold" horiz-adv-x="530" >
  <font-face 
    font-family="Signika Negative SemiBold"
    font-weight="600"
    font-stretch="normal"
    units-per-em="1000"
    panose-1="2 1 0 3 2 6 0 0 0 4"
    ascent="800"
    descent="-200"
    x-height="496"
    cap-height="688"
    bbox="-124 -274 951 918"
    underline-thickness="50"
    underline-position="-150"
    unicode-range="U+000D-20AC"
  />
<missing-glyph horiz-adv-x="186" 
 />
    <glyph glyph-name=".notdef" horiz-adv-x="186" 
 />
    <glyph glyph-name=".null" horiz-adv-x="0" 
 />
    <glyph glyph-name=".null" horiz-adv-x="0" 
 />
    <glyph glyph-name="nonmarkingreturn" horiz-adv-x="333" 
 />
    <glyph glyph-name="CR" unicode="&#xd;" horiz-adv-x="186" 
 />
    <glyph glyph-name="space" unicode=" " horiz-adv-x="220" 
 />
    <glyph glyph-name="exclam" unicode="!" horiz-adv-x="296" 
d="M97 200l-15 456q49 35 132 35l7 -9l-28 -482q-19 -6 -48 -6t-48 6zM145 121q40 0 63 -14q10 -14 10 -50.5t-10 -52.5q-23 -14 -63 -14t-63 14q-10 18 -10 52t10 51q23 14 63 14z" />
    <glyph glyph-name="quotedbl" unicode="&#x22;" horiz-adv-x="413" 
d="M239 717q0 15 7 45q25 14 59 14t57 -14q7 -30 7 -45.5t-5 -45.5q-21 -112 -28 -169q-11 -7 -31.5 -7t-32.5 7q-10 82 -21.5 141t-11.5 74zM44 717q0 15 7 45q25 14 59 14t57 -14q7 -30 7 -45.5t-6 -45.5q-20 -112 -27 -169q-11 -7 -31.5 -7t-32.5 7q-10 82 -21.5 141
t-11.5 74z" />
    <glyph glyph-name="numbersign" unicode="#" horiz-adv-x="673" 
d="M443 511l30 133q20 8 55 8t54 -8l-30 -133h96q8 -21 8 -50t-8 -50h-118l-37 -165h105q8 -21 8 -50t-8 -50h-128l-29 -133q-20 -9 -55.5 -9t-54.5 9l30 133h-123l-30 -133q-20 -9 -55.5 -9t-54.5 9l30 133h-99q-7 21 -7 50t7 50h121l37 165h-109q-8 21 -8 50t8 50h132
l30 133q20 8 55.5 8t54.5 -8l-30 -133h123zM297 411l-37 -165h123l37 165h-123z" />
    <glyph glyph-name="dollar" unicode="$" horiz-adv-x="503" 
d="M28 97q1 24 15.5 52.5t32.5 40.5q104 -55 180 -55q37 0 60.5 15t23.5 42q0 43 -63 67l-97 35q-128 48 -128 151q0 63 41 107t110 56v81q15 4 46 4t48 -4v-80q74 -7 156 -43q0 -59 -43 -97q-94 39 -156 39q-34 0 -54 -14.5t-20 -37t14.5 -34t45.5 -22.5l95 -35
q135 -51 135 -165q0 -67 -48 -111.5t-129 -52.5v-76q-19 -3 -48.5 -3t-45.5 3v78q-105 14 -171 59z" />
    <glyph glyph-name="percent" unicode="%" horiz-adv-x="939" 
d="M842 364q51 -51 51 -167t-51 -167q-42 -43 -112.5 -43t-117 47t-46.5 163t46.5 163t117 47t112.5 -43zM674 264q-4 -26 -4 -66.5t4 -66.5t17.5 -45.5t38.5 -19.5q35 0 47.5 35t12.5 96.5t-12.5 96t-47.5 34.5q-25 0 -38.5 -19t-17.5 -45zM47 486q0 117 46 163.5
t116.5 46.5t117 -47t46.5 -163.5t-46.5 -163t-117 -46.5t-116.5 46.5t-46 163.5zM150 486q0 -61 12.5 -96t47.5 -35t47.5 35t12.5 96t-12.5 96t-47.5 35t-47.5 -35t-12.5 -96zM221 0l377 683q25 6 64 6t56 -6l-377 -683q-25 -6 -64 -6t-56 6z" />
    <glyph glyph-name="ampersand" unicode="&#x26;" horiz-adv-x="636" 
d="M320 413h188q61 0 100 18q16 -22 16 -59q0 -64 -83 -64h-27q1 -24 1 -62v-91q0 -73 6 -155q-21 -7 -57 -7t-58 6l-9 42q-68 -55 -158.5 -55t-141.5 54.5t-51 130.5t38 126.5t93 67.5q-46 16 -74 57.5t-28 94.5q0 79 57.5 129.5t159 50.5t190.5 -31v-6q0 -53 -32 -90
q-87 27 -140 27t-78.5 -25t-25.5 -65q0 -94 114 -94zM392 245q0 40 1 63h-84q-66 0 -99 -33.5t-33 -84.5t25.5 -78t68.5 -27q70 0 121 43v117z" />
    <glyph glyph-name="quotesingle" unicode="'" horiz-adv-x="223" 
d="M42 717q0 15 7 45q25 14 59 14t57 -14q7 -30 7 -45.5t-6 -45.5q-20 -112 -27 -169q-11 -7 -31.5 -7t-32.5 7q-10 82 -21.5 141t-11.5 74z" />
    <glyph glyph-name="parenleft" unicode="(" horiz-adv-x="348" 
d="M192 324q0 -119 35 -236t104 -209q-21 -48 -72 -66q-94 90 -146 231t-52 279.5t52 279.5t146 231q50 -16 72 -66q-69 -93 -104 -209t-35 -235z" />
    <glyph glyph-name="parenright" unicode=")" horiz-adv-x="348" 
d="M156 324q0 119 -35 235t-104 209q23 51 73 66q94 -90 145.5 -230.5t51.5 -279.5t-51.5 -280t-145.5 -231q-51 18 -73 66q69 92 104 209t35 236z" />
    <glyph glyph-name="asterisk" unicode="*" horiz-adv-x="511" 
d="M41 537q-1 20 9 51.5t24 47.5l55 -20q31 -11 97 -55q-20 72 -21 110l-2 59q18 8 51.5 8t52.5 -8l-2 -59q-1 -37 -21 -109q53 37 97 53l56 20q12 -15 22.5 -46.5t9.5 -51.5l-57 -17q-37 -11 -110 -13q56 -45 81 -76l35 -47q-10 -17 -36.5 -36.5t-46.5 -23.5l-33 48
q-24 35 -47 100q-27 -71 -48 -99l-32 -49q-20 5 -47 24t-37 37l36 46q22 29 81 76q-69 2 -110 14z" />
    <glyph glyph-name="plus" unicode="+" 
d="M211 346l-1 57v108q23 5 55.5 5t54.5 -5v-108l-1 -57l56 1h100q5 -23 5 -53t-5 -50h-100l-56 1l1 -55v-109q-22 -5 -55 -5t-55 5v109l1 55l-56 -1h-100q-5 20 -5 51.5t5 51.5h100z" />
    <glyph glyph-name="comma" unicode="," horiz-adv-x="279" 
d="M208 113q12 -32 12 -71q0 -69 -41.5 -127.5t-118.5 -83.5q-16 8 -23.5 23.5t-7.5 24.5v12q36 15 59.5 41.5t27.5 59.5q-27 4 -42 14q-10 22 -10 56t10 51q28 15 69.5 15t64.5 -15z" />
    <glyph glyph-name="hyphen" unicode="-" horiz-adv-x="360" 
d="M311 216h-261q-6 20 -6 51.5t6 51.5h261q5 -21 5 -51.5t-5 -51.5z" />
    <glyph glyph-name="period" unicode="." horiz-adv-x="272" 
d="M68 6q-10 20 -10 53.5t10 54.5q27 15 69 15t67 -15q10 -21 10 -54.5t-10 -53.5q-22 -15 -67 -15t-69 15z" />
    <glyph glyph-name="slash" unicode="/" horiz-adv-x="433" 
d="M5 -74l315 838q63 -7 106 -40l-315 -838q-63 5 -106 40z" />
    <glyph glyph-name="zero" unicode="0" 
d="M54.5 159q-14.5 65 -14.5 165.5t14.5 165t57.5 111.5q61 61 153 61t153 -61q43 -47 57.5 -112t14.5 -165t-14.5 -165t-57.5 -112q-61 -61 -153 -61t-153 61q-43 47 -57.5 112zM168 324q0 -157 31 -205q21 -37 66 -37t66 37q31 48 31 205t-31 205q-21 37 -66 37t-66 -37
q-31 -48 -31 -205z" />
    <glyph glyph-name="one" unicode="1" 
d="M234 102l-1 70v190q0 28 6 118q-53 -63 -140 -101q-19 10 -33.5 30t-18.5 43q142 88 190 196q28 5 59.5 5t58.5 -5v-476l-1 -70l62 1h63q6 -24 6 -51.5t-6 -51.5h-392q-6 26 -6 52.5t6 50.5h87z" />
    <glyph glyph-name="two" unicode="2" 
d="M480 107q0 -26 -3 -47q-9 -61 -78 -61h-306q-46 46 -46 77q0 78 121 186l102 90q67 59 67 120q0 39 -24 63.5t-62 24.5t-65.5 -26t-42.5 -66q-25 0 -51 10.5t-37 28.5q21 67 76 111t139 44t139 -53t55 -140q0 -64 -31.5 -109t-91.5 -96l-75 -64q-78 -66 -92 -102
q76 9 140 9h166z" />
    <glyph glyph-name="three" unicode="3" 
d="M432 519l-94 -99q-14 -14 -34 -29q78 -6 127.5 -54.5t49.5 -142t-68.5 -151t-163.5 -57.5q-125 0 -205 69q10 47 53 82q64 -50 136 -50q54 0 87 31.5t33 84.5t-28 81t-67 28t-71 -15q-33 16 -48 66l113 120q40 43 68 64l-4 6q-42 -11 -108 -11h-134q-8 22 -8 51t11 55
h354q25 -48 25 -76t-24 -53z" />
    <glyph glyph-name="four" unicode="4" 
d="M403 129l1 -60v-69q-26 -5 -60.5 -5t-59.5 5v69l1 60l-62 -1h-164q-27 43 -27 70t19 69l166 388q11 2 26 2t44 -6t44 -21l-96 -225q-52 -123 -85 -175l2 -4q50 5 122 5h10v88q0 45 22 71t62 26h31l5 -5v-119l-1 -61l51 1h42q4 -20 4 -46.5t-8 -56.5h-89z" />
    <glyph glyph-name="five" unicode="5" 
d="M444 648q8 -22 8 -51q0 -54 -54 -54h-196v-40l-4 -62l-3 -22q37 13 75 13q96 0 152 -57t56 -153q0 -114 -70 -175t-177 -61t-183 66q4 20 19 44.5t33 37.5q67 -47 124.5 -47t91.5 33.5t34 95.5t-33 90.5t-85 28.5t-98 -38q-17 3 -35 15.5t-27 26.5l16 302l7 7h349z" />
    <glyph glyph-name="six" unicode="6" 
d="M428 49q-62 -63 -161 -63q-119 0 -175 96q-32 53 -40.5 114.5t-8.5 127.5q0 158 68.5 248t195.5 90q89 0 152 -33q-5 -58 -43 -87q-48 21 -100 21q-71 0 -106 -48.5t-38 -131.5q61 51 141 51t128.5 -54t48.5 -161t-62 -170zM276 332q-56 0 -104 -46v-14q0 -112 36 -159
q26 -33 68 -33t66 35t24 93q0 124 -90 124z" />
    <glyph glyph-name="seven" unicode="7" 
d="M65 648h402q22 -46 22 -73t-18 -53l-36 -50q-71 -103 -110 -204.5t-51 -227.5l-3 -40q-21 -5 -62 -5t-65 5l4 44q21 232 154 417l11 17q30 42 60 70l-5 5q-47 -11 -147 -11h-161q-6 20 -6 49t11 57z" />
    <glyph glyph-name="eight" unicode="8" 
d="M37 164q0 54 31.5 98.5t81.5 72.5q-96 56 -96 154q0 74 60 123.5t152.5 49.5t150.5 -47.5t58 -122.5q0 -46 -26.5 -83.5t-69.5 -59.5q114 -64 114 -178q-1 -85 -68 -135t-167 -50t-160.5 47.5t-60.5 130.5zM236 297h-1q-73 -48 -73 -125q0 -44 28.5 -71t73.5 -27
t73.5 27.5t28.5 70t-30 72t-79 45.5zM176 489q0 -67 104 -99l12 -5q62 39 62 102q0 38 -25.5 61.5t-64 23.5t-63.5 -23.5t-25 -59.5z" />
    <glyph glyph-name="nine" unicode="9" 
d="M102 599q62 63 161 63q119 0 175 -96q32 -53 40.5 -114.5t8.5 -127.5q0 -158 -68.5 -248t-195.5 -90q-89 0 -152 33q5 58 43 87q48 -21 100 -21q136 0 143 180q-59 -51 -139.5 -51t-129 54t-48.5 161t62 170zM254 316q56 0 104 45v15q0 112 -36 159q-26 33 -68 33
t-66 -35t-24 -93q0 -124 90 -124z" />
    <glyph glyph-name="colon" unicode=":" horiz-adv-x="279" 
d="M71 6q-10 20 -10 53.5t10 54.5q27 15 69 15t67 -15q10 -21 10 -54.5t-10 -53.5q-23 -15 -67.5 -15t-68.5 15zM71 327q-10 20 -10 53.5t10 54.5q27 15 69 15t67 -15q10 -21 10 -54.5t-10 -53.5q-23 -15 -67.5 -15t-68.5 15z" />
    <glyph glyph-name="semicolon" unicode=";" horiz-adv-x="283" 
d="M207 113q12 -32 12 -71q0 -69 -41.5 -127.5t-118.5 -83.5q-16 8 -23.5 23.5t-7.5 24.5v12q36 15 59.5 41.5t27.5 59.5q-27 4 -42 14q-10 22 -10 56t10 51q28 15 69.5 15t64.5 -15zM73 327q-10 20 -10 53.5t10 54.5q27 15 69 15t67 -15q10 -21 10 -54.5t-10 -53.5
q-23 -15 -67.5 -15t-68.5 15z" />
    <glyph glyph-name="less" unicode="&#x3c;" 
d="M53 343l364 200q23 -13 39 -40t17 -57l-216 -112q-42 -21 -78 -35v-7q36 -14 78 -35l216 -113q-2 -30 -18.5 -57.5t-38.5 -39.5l-363 200q-7 25 -7 49t7 47z" />
    <glyph glyph-name="equal" unicode="=" 
d="M475 142h-420q-5 21 -5 51.5t5 51.5h420q5 -21 5 -51.5t-5 -51.5zM475 349h-420q-5 20 -5 51t5 52h420q5 -21 5 -52t-5 -51z" />
    <glyph glyph-name="greater" unicode="&#x3e;" 
d="M477 248l-364 -200q-23 14 -39 40.5t-17 56.5l216 112q29 16 78 35v7q-36 14 -78 35l-216 113q2 30 18.5 57.5t38.5 39.5l363 -200q7 -25 7 -49t-7 -47z" />
    <glyph glyph-name="question" unicode="?" horiz-adv-x="405" 
d="M7 643q96 54 191.5 54t147.5 -48t52 -127q0 -125 -131 -196l-62 -33l-8 -92q-21 -7 -47.5 -7t-47.5 7l-6 149l10 13l51 24q110 55 110 122q0 37 -24 58.5t-73.5 21.5t-117.5 -36q-17 14 -30.5 40t-14.5 50zM87 105q25 14 64.5 14t62.5 -14q10 -17 10 -51t-10 -52
q-26 -14 -62.5 -14t-64.5 14q-9 17 -9 52.5t9 50.5z" />
    <glyph glyph-name="at" unicode="@" horiz-adv-x="961" 
d="M676 412l-1 -252q0 -33 9 -47.5t30 -14.5q37 0 62 47t25 151q0 134 -83 213.5t-225.5 79.5t-232.5 -102.5t-90 -261t78 -241.5t213 -83q104 0 200 37q32 -34 32 -85q-114 -47 -241 -47q-184 0 -295 107t-111 308t127 330.5t319.5 129.5t311.5 -105.5t119 -283.5
q0 -137 -63 -211.5t-148.5 -74.5t-127.5 60q-64 -64 -139 -64t-117.5 61t-42.5 169t55.5 179.5t153.5 71.5q52 0 101.5 -20.5t80.5 -50.5zM474 97q43 0 85 49v224q-27 25 -69 25t-63.5 -45.5t-21.5 -118.5q0 -134 69 -134z" />
    <glyph glyph-name="A" unicode="A" horiz-adv-x="622" 
d="M427 157l-52 -1h-139l-51 1l-49 -158q-20 -5 -57 -5t-59 9l-5 6l224 674q33 5 76 5t70 -6l221 -674q-29 -16 -66.5 -16t-54 14.5t-28.5 53.5zM216 259l47 1h89q3 0 19.5 -0.5t24.5 -0.5l-34 112q-28 89 -54 191h-5q-12 -61 -43 -162z" />
    <glyph glyph-name="B" unicode="B" horiz-adv-x="609" 
d="M92 684q150 4 216 4q109 0 167 -46.5t58 -134.5q0 -47 -25.5 -85t-66.5 -55q53 -16 88.5 -64.5t35.5 -109.5q0 -93 -62 -145.5t-181 -52.5q-72 0 -230 4l-7 6v673zM211 88l107 1q65 0 91.5 33t26.5 77t-28.5 78t-94.5 34h-102v-223zM211 595v-189h92q57 0 80.5 27.5
t23.5 66.5q0 94 -103 94q-64 0 -93 1z" />
    <glyph glyph-name="C" unicode="C" horiz-adv-x="606" 
d="M450 433v8q0 63 -29.5 108.5t-98.5 45.5q-144 0 -144 -257q0 -116 40.5 -178.5t117.5 -62.5t172 74q20 -14 38 -37.5t23 -44.5q-45 -45 -114 -74t-143 -29t-127 30t-83 82q-58 99 -58 241q0 177 79.5 267.5t195.5 90.5t184.5 -58.5t68.5 -141.5q0 -71 -72 -71
q-26 0 -50 7z" />
    <glyph glyph-name="D" unicode="D" horiz-adv-x="656" 
d="M587.5 514q22.5 -72 22.5 -172.5t-22.5 -173t-85.5 -123.5q-31 -25 -81.5 -37.5t-102.5 -12.5t-226 4l-7 6v673l7 6q115 4 232 4q46 0 96.5 -13t81.5 -38q63 -51 85.5 -123zM473.5 254.5q5.5 38.5 5.5 87t-5.5 87t-21 77t-48.5 60t-92 21.5t-100 1v-492h111q48 0 81 21.5
t48.5 60t21 77z" />
    <glyph glyph-name="E" unicode="E" horiz-adv-x="569" 
d="M210 163l-1 -59q42 2 69 2h248q0 -31 -2 -47q-11 -61 -82 -61h-285q-34 0 -53.5 20.5t-19.5 56.5v601l7 7h413q5 -24 5 -49.5t-10 -57.5h-290l1 -68v-112q24 1 64 1h174q7 -24 7 -52.5t-7 -52.5h-174q-40 0 -64 1v-130z" />
    <glyph glyph-name="F" unicode="F" horiz-adv-x="527" 
d="M211 575l1 -102v-78h232q6 -24 6 -52.5t-6 -52.5h-232v-290q-26 -5 -63.5 -5t-63.5 5v677l7 6h408q6 -21 6 -50q0 -59 -70 -59h-138q-61 0 -87 1z" />
    <glyph glyph-name="G" unicode="G" horiz-adv-x="648" 
d="M346 370l155 1h2q86 0 86 -81v-261q-117 -43 -259 -43t-214 96.5t-72 263t89.5 259t219 92.5t234.5 -73q-3 -27 -20.5 -53t-38.5 -40q-84 59 -170.5 59t-134.5 -61.5t-48 -192.5q0 -247 182 -247q53 0 111 13v95q0 45 2 66h-73q-31 0 -45.5 12.5t-14.5 40t9 54.5z" />
    <glyph glyph-name="H" unicode="H" horiz-adv-x="679" 
d="M468 405l-1 74v204q25 5 63.5 5t63.5 -5v-683q-26 -5 -64 -5t-63 5v225l1 74l-54 -1h-149l-54 1l1 -74v-225q-25 -5 -64 -5t-63 5v683q24 5 63 5t64 -5v-204l-1 -74l54 1h149z" />
    <glyph glyph-name="I" unicode="I" horiz-adv-x="303" 
d="M88 0v683q24 5 63 5t64 -5v-683q-25 -5 -64 -5t-63 5z" />
    <glyph glyph-name="J" unicode="J" horiz-adv-x="457" 
d="M56 128q52 -32 104 -32t74 34t22 109v444q25 5 64 5t64 -5v-429q0 -157 -62 -215q-52 -49 -147.5 -49t-164.5 43q10 56 46 95z" />
    <glyph glyph-name="K" unicode="K" horiz-adv-x="606" 
d="M593 32q-27 -39 -85 -39q-34 0 -50.5 17t-30.5 58l-47 135q-19 53 -43.5 74.5t-65.5 21.5q-9 0 -59 -2v-297q-25 -5 -64 -5t-63 5v683q24 5 63 5t64 -5v-277l44 1q16 0 24 6t17 24l116 202q14 26 28.5 37t46.5 11t70 -3l8 -10l-140 -246q-19 -35 -46 -59q47 -9 72.5 -38
t44.5 -81l49 -137q20 -57 47 -81z" />
    <glyph glyph-name="L" unicode="L" horiz-adv-x="516" 
d="M302 108h189q0 -33 -3 -48q-11 -62 -83 -62h-247q-34 0 -54 20.5t-20 56.5v607l7 6h47q38 0 56 -19t18 -62v-502q48 3 90 3z" />
    <glyph glyph-name="M" unicode="M" horiz-adv-x="818" 
d="M66 2l53 680q34 6 84.5 6t82.5 -6l81 -286q27 -95 39 -168h6q12 73 39 168l81 286q34 6 83 6t83 -6l53 -680q-25 -7 -60.5 -7t-60.5 4l-20 332q-6 92 -8 214h-6l-122 -442q-32 -5 -66 -5t-64 5l-122 442h-6q-5 -149 -8 -214l-21 -332q-24 -4 -60 -4t-61 7z" />
    <glyph glyph-name="N" unicode="N" horiz-adv-x="686" 
d="M595 688l6 -6v-680q-28 -7 -73 -7t-79 5l-191 396q-25 51 -61 139l-4 -1q10 -125 10 -266v-268q-26 -5 -59.5 -5t-58.5 5v681q28 7 72.5 7t77.5 -5l189 -395q26 -54 66 -147l3 1q-10 142 -10 268v200q0 42 16 60t54 18h42z" />
    <glyph glyph-name="O" unicode="O" horiz-adv-x="661" 
d="M177 341.5q0 -255.5 153.5 -255.5t153.5 255.5t-153.5 255.5t-153.5 -255.5zM151 47q-107 91 -107 294.5t107 294.5q73 61 179 61t181 -61q106 -91 106 -294.5t-106 -294.5q-75 -61 -181 -61t-179 61z" />
    <glyph glyph-name="P" unicode="P" horiz-adv-x="576" 
d="M478.5 629.5q64.5 -58.5 64.5 -169t-64.5 -170t-170.5 -59.5h-96v-231q-25 -5 -64 -5t-63 5v678l7 6q158 4 216 4q106 0 170.5 -58.5zM212 589v-261q68 2 88 2q62 0 87 38.5t25 91t-25 90.5t-84.5 38t-90.5 1z" />
    <glyph glyph-name="Q" unicode="Q" horiz-adv-x="660" 
d="M446 -102l-108 88h-7q-109 0 -181 60q-106 92 -106 296.5t106 294.5q70 60 178.5 60t180.5 -60q105 -91 105 -296q0 -184 -85 -272q-28 -31 -61 -43l23 -16q72 -52 127 -53q-1 -42 -25.5 -66.5t-66.5 -24.5t-80 32zM176 342q0 -255 153 -255t153 255t-153 255t-153 -255z
" />
    <glyph glyph-name="R" unicode="R" horiz-adv-x="606" 
d="M550 478q0 -67 -36.5 -115.5t-89.5 -67.5q49 -17 73 -87l39 -105q19 -51 47 -72q-28 -39 -86 -39q-33 0 -49.5 17.5t-30.5 58.5l-45 123q-13 36 -33.5 55t-61.5 19h-66v-265q-25 -5 -63.5 -5t-62.5 5v678l7 6q158 4 224 4q107 0 170.5 -54t63.5 -156zM211 590v-225
q72 2 97 2q111 0 111 111t-111 111q-65 0 -97 1z" />
    <glyph glyph-name="S" unicode="S" horiz-adv-x="556" 
d="M24 61q7 59 52 96q104 -66 201 -66q52 0 81 23t29 60q2 59 -80 95l-118 50q-139 62 -139 178q0 86 66 143t172.5 57t214.5 -54q-3 -59 -44 -98q-96 48 -175 48q-49 0 -76.5 -23.5t-27.5 -56.5q0 -49 73 -80l118 -50q150 -65 150 -191q0 -92 -65 -149t-192.5 -57
t-239.5 75z" />
    <glyph glyph-name="T" unicode="T" horiz-adv-x="499" 
d="M313 578l1 -74v-504q-26 -5 -64 -5t-63 5v578l-60 -1h-113q-5 23 -5 52.5t5 53.5h473q7 -25 7 -52.5t-16.5 -40.5t-52.5 -13h-51l-60 1h-1z" />
    <glyph glyph-name="U" unicode="U" horiz-adv-x="671" 
d="M595 683v-438q0 -124 -69 -191.5t-190.5 -67.5t-190.5 67.5t-69 191.5v437l6 6h48q38 0 55.5 -19.5t17.5 -61.5v-363q0 -156 132 -156t132 156v439q25 5 64 5t64 -5z" />
    <glyph glyph-name="V" unicode="V" horiz-adv-x="587" 
d="M306 110l149 573q21 5 54 5t59 -8l6 -8l-194 -672q-39 -5 -87.5 -5t-69 12t-30.5 47l-177 618q44 19 74.5 19t46.5 -14.5t25 -48.5l93 -331q16 -56 42 -176q2 -11 9 -11z" />
    <glyph glyph-name="W" unicode="W" horiz-adv-x="871" 
d="M147 55l-123 621q35 15 68.5 15t48.5 -15t21 -54l55 -308q19 -109 25 -157t7.5 -49.5t6.5 -1.5l99 563q37 6 83 6t81 -6l91 -551q1 -8 3 -10t7 -2q11 91 33 209l69 368q23 5 56 5t62 -8l6 -8l-139 -671q-45 -6 -95 -6t-69.5 12t-24.5 48l-43 248q-27 172 -36 241h-7
q-18 -127 -39 -241l-55 -302q-46 -6 -95 -6t-69 12t-27 48z" />
    <glyph glyph-name="X" unicode="X" horiz-adv-x="598" 
d="M440 683q22 5 56.5 5t63.5 -11l3 -7l-190 -310l211 -340q-40 -28 -86 -28t-79 50l-129 209l-151 -251q-20 -5 -55 -5t-66 11l-4 8l211 341l-190 308q40 28 75 28t53 -11t36 -39l110 -177z" />
    <glyph glyph-name="Y" unicode="Y" horiz-adv-x="518" 
d="M313 477l82 206q21 5 55 5t59 -9l6 -8l-192 -457v-214q-25 -5 -64 -5t-63 5v218l-192 450q41 23 73 23t47 -12t27 -41l67 -164q25 -64 43 -132h6q13 53 46 135z" />
    <glyph glyph-name="Z" unicode="Z" horiz-adv-x="569" 
d="M60 129l241 351q18 27 79 103l-3 3q-57 -9 -155 -9h-154q-5 19 -5 46t9 60h424q18 -65 18 -85t-16 -43l-240 -348q-25 -39 -78 -102l3 -3q84 6 132 6h85q71 0 116 20q9 -29 9 -59q0 -69 -85 -69h-381q-15 60 -15 83t16 46z" />
    <glyph glyph-name="bracketleft" unicode="[" horiz-adv-x="364" 
d="M327 -147l-220 -8l-8 7v961l8 7l220 -8q5 -11 5 -35.5t-10 -51.5l-101 -3v-779l101 -3q10 -27 10 -51.5t-5 -35.5z" />
    <glyph glyph-name="backslash" unicode="\" horiz-adv-x="433" 
d="M322 -114l-315 838q45 33 107 40l315 -838q-43 -33 -107 -40z" />
    <glyph glyph-name="bracketright" unicode="]" horiz-adv-x="364" 
d="M257 -155l-221 8q-4 12 -4 37t9 50l101 3v779l-101 3q-9 25 -9 50t4 37l221 8l8 -7v-961z" />
    <glyph glyph-name="asciicircum" unicode="^" 
d="M492 306q-24 -6 -61 -6t-59 6l-69 154q-11 27 -34 93h-8q-23 -66 -34 -93l-69 -154q-22 -6 -40 -6q-56 0 -80 6l161 342q24 6 67.5 6t64.5 -6z" />
    <glyph glyph-name="underscore" unicode="_" horiz-adv-x="543" 
d="M544 -164h-545q-5 20 -5 47.5t5 47.5h545q5 -20 5 -47.5t-5 -47.5z" />
    <glyph glyph-name="grave" unicode="`" horiz-adv-x="398" 
d="M140 751l149 -163q-7 -17 -22 -30.5t-31 -18.5l-177 135q9 25 32.5 47t48.5 30z" />
    <glyph glyph-name="a" unicode="a" horiz-adv-x="509" 
d="M470 56q-5 -17 -17.5 -35.5t-25.5 -28.5q-62 7 -91 58q-66 -64 -143 -64t-116 45t-39 104q0 84 54.5 126.5t139.5 42.5q46 0 87 -4v30q0 79 -76 79q-54 0 -153 -36q-29 31 -33 89q108 45 216 45q75 0 122 -42t47 -127v-204q0 -55 28 -78zM219 81q52 0 100 48v89
q-35 4 -76 4t-62 -21t-21 -53t16 -49.5t43 -17.5z" />
    <glyph glyph-name="b" unicode="b" horiz-adv-x="531" 
d="M447 436.5q45 -68.5 45 -188t-64.5 -188t-167.5 -68.5t-189 33v704l7 7h46q37 0 52.5 -17.5t15.5 -59.5v-199q58 45 126 45q84 0 129 -68.5zM285 404q-52 0 -93 -47v-266q32 -9 68 -9q50 0 78 44.5t28 126.5q0 149 -81 151z" />
    <glyph glyph-name="c" unicode="c" horiz-adv-x="472" 
d="M327 293v12q0 50 -15.5 80.5t-60.5 30.5q-85 0 -85 -165.5t103 -165.5q52 0 117 48q16 -10 30 -31t19 -41q-75 -75 -182 -75t-160.5 72t-53.5 196t63 190t150 66t137.5 -46.5t50.5 -111t-62 -64.5q-23 0 -51 5z" />
    <glyph glyph-name="d" unicode="d" horiz-adv-x="533" 
d="M84 55.5q-45 69.5 -45 190.5t57.5 190t138.5 69q51 0 105 -28v252l6 7h48q37 0 52 -17.5t15 -59.5v-517q0 -62 28 -86q-5 -17 -17.5 -35.5t-25.5 -28.5q-63 9 -89 60q-59 -66 -143.5 -66t-129.5 69.5zM245 88q55 0 95 54v236q-51 31 -89 31t-61.5 -43.5t-23.5 -122.5
t22 -117t57 -38z" />
    <glyph glyph-name="e" unicode="e" horiz-adv-x="499" 
d="M446 208h-280q3 -59 26.5 -91.5t82.5 -32.5t131 35q28 -27 36 -76q-80 -57 -192.5 -57t-161.5 73t-49 189t54 189t154.5 73t154.5 -60.5t54 -152.5q0 -46 -10 -89zM253 420q-82 0 -88 -124h174v12q0 50 -21 81t-65 31z" />
    <glyph glyph-name="f" unicode="f" horiz-adv-x="343" 
d="M96 0v409l-86 -2q-5 23 -5 44t5 46l80 -1q-6 54 -6 81q0 71 44 117t116.5 46t139.5 -25q0 -53 -28 -83q-46 14 -81 14t-54 -20t-19 -56t6 -75l137 2q5 -19 5 -46t-5 -44l-128 2v-409q-32 -5 -61.5 -5t-59.5 5z" />
    <glyph glyph-name="g" unicode="g" horiz-adv-x="531" 
d="M84 60q-45 69 -45 190.5t57 190.5t137 69t135 -50q29 37 79 43q14 -9 26.5 -28t16.5 -35q-28 -24 -28 -86v-284q0 -159 -52 -225t-171 -66q-93 0 -179 34q0 55 31 91q69 -31 134.5 -31t90.5 33t25 92v40q-57 -47 -125 -47q-87 0 -132 69zM341 141v232q-44 41 -86 41
t-65.5 -43t-23.5 -123t21.5 -118t56.5 -38q54 0 97 49z" />
    <glyph glyph-name="h" unicode="h" horiz-adv-x="543" 
d="M476 335v-222q0 -61 20 -94q-31 -26 -72.5 -26t-56.5 19t-15 59v237q0 46 -11.5 65.5t-42.5 19.5q-57 0 -106 -52v-341q-28 -5 -59.5 -5t-61.5 5v729l7 7h47q38 0 52.5 -17.5t14.5 -59.5v-217q71 62 143 62t106.5 -46.5t34.5 -122.5z" />
    <glyph glyph-name="i" unicode="i" horiz-adv-x="282" 
d="M212 399v-399q-28 -5 -61 -5t-63 5v353q0 54 -45 54h-12q-5 17 -5 43t5 45q36 4 73 4h16q43 0 67.5 -27t24.5 -73zM67 586q-10 23 -10 49.5t10 49.5q26 14 64.5 14t61.5 -14q10 -23 10 -49.5t-10 -49.5q-23 -14 -64.5 -14t-61.5 14z" />
    <glyph glyph-name="j" unicode="j" horiz-adv-x="288" 
d="M219 399v-377q0 -87 -12.5 -125t-30.5 -57q-37 -41 -120 -60q-30 27 -35 76q43 21 59 46t16 77v374q0 54 -45 54h-21q-5 17 -5 43t5 45q40 4 82 4h17q42 0 66 -26.5t24 -73.5zM72 586q-10 23 -10 49.5t10 49.5q26 14 64.5 14t61.5 -14q10 -23 10 -49.5t-10 -49.5
q-23 -14 -64.5 -14t-61.5 14z" />
    <glyph glyph-name="k" unicode="k" horiz-adv-x="510" 
d="M419 191l30 -79q22 -63 48 -81q-34 -38 -83 -38q-29 0 -43.5 14t-27.5 48l-36 94q-14 36 -29.5 48t-37.5 12t-48 -2v-207q-28 -5 -59.5 -5t-61.5 5v729l7 7h47q38 0 52.5 -17.5t14.5 -59.5v-349l27 1q15 0 26 16l73 123q28 49 74 49t69 -1l6 -8l-97 -164q-18 -31 -40 -46
q61 -19 89 -89z" />
    <glyph glyph-name="l" unicode="l" horiz-adv-x="301" 
d="M232 92h33q10 -30 10 -53t-3 -35q-58 -9 -94 -9q-108 0 -108 117v617l6 7h48q37 0 52 -17.5t15 -59.5v-522q0 -45 41 -45z" />
    <glyph glyph-name="m" unicode="m" horiz-adv-x="802" 
d="M340 308q0 85 -54 85q-44 0 -91 -50v-343q-28 -5 -61 -5t-63 5v494l7 7h46q58 0 69 -62q69 66 144.5 66t109.5 -72q77 72 157 72q63 0 96.5 -44t33.5 -114v-234q0 -61 20 -94q-31 -26 -72.5 -26t-56.5 19t-15 59v238q0 84 -55 84q-42 0 -91 -52v-341q-28 -5 -61 -5t-63 5
v308z" />
    <glyph glyph-name="n" unicode="n" horiz-adv-x="546" 
d="M479 335v-222q0 -61 20 -94q-33 -26 -73.5 -26t-55.5 19t-15 59v238q0 45 -12 64.5t-43 19.5q-57 0 -105 -50v-343q-28 -5 -61 -5t-63 5v495l7 6h46q57 0 68 -60q73 64 145.5 64t107 -47t34.5 -123z" />
    <glyph glyph-name="o" unicode="o" horiz-adv-x="521" 
d="M482 248q0 -134 -71 -205q-57 -57 -150.5 -57t-150.5 57q-71 71 -71 205t71 205q57 57 150.5 57t150.5 -57q71 -71 71 -205zM166 248q0 -168 94.5 -168t94.5 168t-94.5 168t-94.5 -168z" />
    <glyph glyph-name="p" unicode="p" horiz-adv-x="533" 
d="M449 440.5q45 -69.5 45 -190.5t-57 -190t-138 -69q-52 0 -106 28v-158q0 -42 -15 -59.5t-53 -17.5h-47l-7 7v704l7 6h35q52 0 71 -49q58 58 139 58t126 -69.5zM288 408q-55 0 -95 -54v-237q48 -31 87.5 -31t63 43.5t23.5 123t-22 117.5t-57 38z" />
    <glyph glyph-name="q" unicode="q" horiz-adv-x="533" 
d="M340 -139v176q-56 -46 -124 -46q-87 0 -132 69t-45 190.5t57 190.5t136.5 69t135.5 -49q30 36 79 42q13 -9 25.5 -27.5t16.5 -35.5q-28 -24 -28 -86v-563l-6 -7h-48q-37 0 -52 17.5t-15 59.5zM244 92q53 0 96 48v234q-45 40 -85.5 40t-64.5 -43t-24 -123t21.5 -118
t56.5 -38z" />
    <glyph glyph-name="r" unicode="r" horiz-adv-x="379" 
d="M42 438q4 17 16.5 36.5t25.5 28.5q78 -12 105 -89q40 89 129 89q23 0 58 -7q0 -65 -30 -116q-15 4 -45 6q-61 0 -98 -65v-321q-28 -5 -61 -5t-63 5v335q0 73 -37 103z" />
    <glyph glyph-name="s" unicode="s" horiz-adv-x="440" 
d="M26 36q1 20 12 45.5t26 39.5q80 -43 140 -43q36 0 56.5 14t20.5 37q0 39 -56 60l-56 21q-126 47 -126 145q0 70 51 112.5t135.5 42.5t168.5 -39q1 -23 -9.5 -49t-26.5 -39q-74 34 -135 34q-28 0 -44.5 -13t-16.5 -35q0 -32 53 -51l61 -23q129 -48 129 -154
q0 -71 -53.5 -113t-148 -42t-181.5 50z" />
    <glyph glyph-name="t" unicode="t" horiz-adv-x="360" 
d="M333 497q5 -20 5 -45.5t-5 -44.5l-122 2v-272q0 -45 43 -45h64q10 -30 10 -53t-3 -35q-63 -9 -119 -9q-116 0 -116 117v296l-75 -1q-5 19 -5 44.5t5 45.5l75 -2v76q0 42 15 59.5t52 17.5h48l6 -7v-146z" />
    <glyph glyph-name="u" unicode="u" horiz-adv-x="548" 
d="M67 160v223q0 60 -19 93q30 27 71.5 27t56.5 -19t15 -59v-238q0 -46 12 -65.5t43 -19.5q57 0 105 50v344q28 5 62 5t62 -5v-355q0 -64 28 -86q-9 -39 -42 -63q-71 9 -97 71q-77 -72 -161 -72q-67 0 -101.5 46.5t-34.5 122.5z" />
    <glyph glyph-name="v" unicode="v" horiz-adv-x="465" 
d="M241 97l106 399q21 4 53 4t56 -9l4 -6q-97 -330 -148 -485q-40 -6 -84.5 -6t-63.5 13t-31 52l-131 427q39 18 70 18q55 0 69 -56l58 -206q8 -26 33 -137q1 -8 9 -8z" />
    <glyph glyph-name="w" unicode="w" horiz-adv-x="736" 
d="M117 58l-101 430q36 16 66 16t43.5 -12.5t19.5 -39.5l39 -190q21 -93 30 -162q2 -8 8 -8l73 400q24 6 74 6t73 -6l71 -392q2 -8 8 -8q26 137 33 170l51 234q22 5 57.5 5t55.5 -10l4 -7l-120 -484q-30 -5 -80.5 -5t-69 12t-24.5 49l-24 127q-17 99 -33 200h-6
q-9 -66 -35 -199l-35 -184q-34 -5 -83.5 -5t-67.5 12.5t-27 50.5z" />
    <glyph glyph-name="x" unicode="x" horiz-adv-x="468" 
d="M328 496q22 5 51 5t60 -9l3 -9l-141 -219l160 -244q-42 -28 -83.5 -28t-65.5 37l-86 133l-98 -162q-18 -6 -54 -6t-60 10l-4 9l156 242l-144 222q40 28 81.5 28t65.5 -38l73 -112z" />
    <glyph glyph-name="y" unicode="y" horiz-adv-x="479" 
d="M470 484l-129 -469q-33 -121 -82.5 -177.5t-148.5 -56.5q-54 0 -106 18v16.5t6.5 35t19.5 37.5q42 -14 83 -14q78 0 108 107l4 13q-36 1 -57.5 14t-30.5 44l-125 434q40 18 76 18q47 0 61 -54l59 -216q3 -9 32 -141q1 -7 9 -7l101 410q23 5 56 5t60 -9z" />
    <glyph glyph-name="z" unicode="z" horiz-adv-x="447" 
d="M49 112l146 197q22 30 80 95l-3 5q-56 -7 -129 -7h-95q-4 16 -4 39t7 55h340q17 -51 17 -71t-13 -39l-148 -198q-34 -48 -76 -95l3 -4q52 5 87 5h43q70 0 102 15q12 -32 12 -52q0 -57 -72 -57h-300q-15 45 -15 65.5t18 46.5z" />
    <glyph glyph-name="braceleft" unicode="{" horiz-adv-x="367" 
d="M43 366q37 10 60 41.5t23 73.5v166q0 72 41 115t109 54l57 9q13 -13 18.5 -34.5t5.5 -31.5t-1 -16l-54 -18q-23 -7 -37 -27.5t-14 -51.5v-163q0 -50 -23.5 -92.5t-61.5 -60.5v-8q38 -17 61.5 -59.5t23.5 -92.5v-164q0 -31 14 -51.5t37 -27.5l54 -18q1 -6 1 -16
t-5.5 -31.5t-18.5 -34.5l-57 9q-68 11 -109 54t-41 115v167q0 42 -23.5 73.5t-59.5 40.5q-6 15 -6 40.5t6 39.5z" />
    <glyph glyph-name="bar" unicode="|" horiz-adv-x="261" 
d="M73 -141v915q21 5 57 5t58 -5v-915q-23 -5 -58.5 -5t-56.5 5z" />
    <glyph glyph-name="braceright" unicode="}" horiz-adv-x="367" 
d="M323 366q6 -14 6 -39.5t-6 -40.5q-36 -9 -59.5 -41t-23.5 -73v-167q0 -72 -40.5 -115t-108.5 -54l-57 -9q-13 13 -18.5 34.5t-5.5 31.5t1 16l54 18q50 15 50 79v164q0 49 24 92t62 60v8q-39 18 -62.5 61t-23.5 92v163q0 64 -50 79l-54 18q-1 6 -1 16t5.5 31.5t18.5 34.5
l57 -9q68 -11 108.5 -54t40.5 -115v-166q0 -42 23.5 -73.5t59.5 -41.5z" />
    <glyph glyph-name="asciitilde" unicode="~" horiz-adv-x="604" 
d="M286 367l80 -36q26 -12 53 -12t54 30l21 24q21 -2 43.5 -15t30.5 -33l-16 -27q-54 -94 -147 -94q-42 0 -87 21l-80 36q-31 12 -49 12q-33 0 -58 -31l-21 -23q-21 2 -43.5 15t-30.5 33l16 27q55 94 147 94q39 0 87 -21z" />
    <glyph glyph-name="exclamdown" unicode="&#xa1;" horiz-adv-x="296" 
d="M198 295l16 -456q-49 -35 -132 -35l-7 10l28 481q19 6 48 6t47 -6zM214 388q-25 -14 -63.5 -14t-63.5 14q-10 18 -10 52t10 51q25 14 63.5 14t63.5 -14q9 -15 9 -51t-9 -52z" />
    <glyph glyph-name="cent" unicode="&#xa2;" horiz-adv-x="466" 
d="M197 -32v100q-85 17 -123 88.5t-38 175.5t46 168.5t118 80.5v100q16 4 47 4t47 -4v-98q65 -12 102.5 -54.5t37.5 -92.5q0 -70 -66 -70q-25 0 -46 6v6q0 116 -77 116q-82 0 -82 -165.5t103 -165.5q53 0 114 48q16 -10 31 -30t19 -39q-53 -59 -139 -75v-99q-18 -3 -47 -3
t-47 3z" />
    <glyph glyph-name="sterling" unicode="&#xa3;" horiz-adv-x="533" 
d="M227 353l178 1q7 -22 7 -45t-7 -47q-109 0 -163 1q-4 -86 -61 -163l3 -3q86 6 155 6h161q0 -27 -3 -43q-11 -61 -83 -61h-347q-15 60 -15 83t16 44l14 23q42 59 46 113h-74q-8 22 -8 45t8 47q8 0 27 -0.5t29 -0.5q-2 6 -10 23.5t-11 26t-8 23.5q-9 27 -9 55
q0 70 54 125.5t153 55.5q119 0 205 -77q-4 -25 -22.5 -48t-42.5 -30q-62 52 -131 52q-40 0 -66.5 -23t-26.5 -64q0 -29 7 -49t14.5 -41.5t10.5 -28.5z" />
    <glyph glyph-name="currency" unicode="&#xa4;" horiz-adv-x="581" 
d="M99 215q-33 52 -33 118.5t32 118.5l-70 77q20 37 65 66l79 -72q53 29 117.5 29t117.5 -28l80 73q40 -24 66 -65l-72 -80q33 -52 33 -118.5t-33 -119.5l70 -77q-21 -38 -65 -65l-80 72q-50 -27 -116 -27t-116 27l-81 -72q-39 24 -65 65zM215 423.5q-26 -35.5 -26 -89
t26 -89.5t75 -36t75 35.5t26 89.5t-26 89.5t-75 35.5t-75 -35.5z" />
    <glyph glyph-name="yen" unicode="&#xa5;" horiz-adv-x="528" 
d="M472 162h-148v-162q-26 -5 -62 -5t-60 5v162h-149q-6 24 -6 40.5t6 40.5h144l-33 74h-111q-6 23 -6 39t6 42h74l-106 237q41 23 72 23t43.5 -10.5t22.5 -33.5l63 -153q15 -36 43 -123h5q24 77 46 125l79 186q22 6 52.5 6t57.5 -7l5 -7l-111 -243h73q6 -26 6 -42t-6 -39
h-110l-33 -74h143q6 -24 6 -40.5t-6 -40.5z" />
    <glyph glyph-name="brokenbar" unicode="&#xa6;" horiz-adv-x="255" 
d="M70 -141v387q22 5 56.5 5t58.5 -5v-387q-24 -5 -58 -5t-57 5zM70 387v387q22 5 56.5 5t58.5 -5v-387q-24 -5 -58 -5t-57 5z" />
    <glyph glyph-name="section" unicode="&#xa7;" horiz-adv-x="491" 
d="M463 307q0 -87 -103 -148q67 -47 67 -116t-53 -112t-146 -43t-164 42q-1 22 10.5 48.5t26.5 37.5q79 -36 135 -36q31 0 49.5 13.5t18.5 36.5q0 34 -54 56l-58 23q-77 32 -119.5 70t-42.5 100q0 88 102 147q-67 47 -67 116t52.5 112t135 43t159.5 -36q1 -22 -9.5 -48
t-25.5 -39q-74 31 -113 31t-57 -14t-18 -36q0 -33 53 -55l58 -23q78 -32 120.5 -70.5t42.5 -99.5zM242 376l-27 10q-29 -14 -47 -37t-18 -51t25.5 -48t74.5 -40l27 -11q65 34 65 87q0 30 -26 50.5t-74 39.5z" />
    <glyph glyph-name="dieresis" unicode="&#xa8;" horiz-adv-x="398" 
d="M240 573q-8 22 -8 43.5t8 43.5q24 14 55 14t55 -14q8 -19 8 -44.5t-8 -42.5q-23 -13 -55 -13t-55 13zM48 573q-8 19 -8 43.5t8 43.5q25 14 55.5 14t54.5 -14q8 -22 8 -44t-8 -43q-23 -13 -55 -13t-55 13z" />
    <glyph glyph-name="copyright" unicode="&#xa9;" horiz-adv-x="797" 
d="M37 341q0 153 104 257.5t257 104.5t257.5 -104.5t104.5 -257.5t-104.5 -257t-257.5 -104t-257 104t-104 257zM135 341q0 -116 74.5 -196t188.5 -80t189 80t75 196t-75 196.5t-188.5 80.5t-188.5 -80.5t-75 -196.5zM459 374v5q0 86 -62 86q-70 0 -70 -123
q0 -58 22.5 -88.5t62 -30.5t94.5 37q30 -17 38 -56q-24 -26 -65 -42.5t-80 -16.5q-88 0 -130.5 55.5t-42.5 147.5t52 141.5t120.5 49.5t109.5 -36t41 -82q0 -53 -53 -53q-24 0 -37 6z" />
    <glyph glyph-name="ordfeminine" unicode="&#xaa;" horiz-adv-x="437" 
d="M395 343q-2 -15 -14 -31.5t-27 -23.5q-50 4 -75 44q-54 -48 -114 -48t-93 35t-33 84q0 66 43 99.5t113 33.5q31 0 67 -3v26q0 28 -15.5 42t-39.5 14q-51 0 -122 -26q-26 28 -28 71q86 37 174 37q61 0 99.5 -33.5t38.5 -101.5v-156q0 -47 26 -63zM189 362q35 0 73 33v69
q-31 3 -59.5 3t-44.5 -15.5t-16 -38.5t13 -37t34 -14z" />
    <glyph glyph-name="guillemotleft" unicode="&#xab;" horiz-adv-x="581" 
d="M542 414l-132 -157l137 -161q-6 -19 -27 -38.5t-42 -25.5l-200 186q-6 15 -6 37t6 37l197 187q21 -6 41 -25.5t26 -39.5zM299 414l-132 -157l137 -161q-6 -19 -27 -38.5t-42 -25.5l-200 186q-6 15 -6 37t6 37l197 187q21 -6 41 -25.5t26 -39.5z" />
    <glyph glyph-name="logicalnot" unicode="&#xac;" 
d="M367 251l-57 -1h-260q-5 20 -5 51t5 52h419l6 -7v-227q-20 -5 -52 -5t-57 5v79z" />
    <glyph glyph-name="uni00AD" unicode="&#xad;" horiz-adv-x="360" 
d="M311 216h-261q-6 20 -6 51.5t6 51.5h261q5 -21 5 -51.5t-5 -51.5z" />
    <glyph glyph-name="registered" unicode="&#xae;" horiz-adv-x="596" 
d="M108.5 287q-77.5 77 -77.5 189.5t77.5 190t189.5 77.5t189.5 -78t77.5 -190t-77.5 -189t-189.5 -77t-189.5 77zM108 476q0 -82 54.5 -138.5t135.5 -56.5t135.5 57t54.5 138.5t-54.5 139t-135.5 57.5t-135.5 -57.5t-54.5 -139.5zM378.5 587.5q24.5 -20.5 24.5 -50.5
t-15 -47t-36 -23q18 -9 33 -38l13 -25q11 -21 22 -28q-15 -25 -43.5 -25t-43.5 30l-23 45q-10 19 -29 19h-16v-89q-17 -6 -33.5 -6t-33.5 6v247l3 2q102 3 103 3q50 0 74.5 -20.5zM265 556v-59q12 1 30 1q37 0 37 29t-33 29h-34z" />
    <glyph glyph-name="macron" unicode="&#xaf;" horiz-adv-x="398" 
d="M345 574h-291q-6 19 -6 46.5t6 47.5h291q5 -21 5 -47.5t-5 -46.5z" />
    <glyph glyph-name="degree" unicode="&#xb0;" horiz-adv-x="336" 
d="M60 411q-43 43 -43 109.5t43 109.5t108.5 43t108.5 -43t43 -109.5t-43 -109.5t-108.5 -43t-108.5 43zM123.5 572.5q-16.5 -19.5 -16.5 -52t16.5 -52t44.5 -19.5t44.5 19.5t16.5 51.5t-16.5 52t-44.5 20t-44.5 -19.5z" />
    <glyph glyph-name="plusminus" unicode="&#xb1;" 
d="M213 399l-1 59v85q21 5 53.5 5t53.5 -5v-85l-1 -59l55 1h91q5 -21 5 -46.5t-5 -48.5h-91l-55 1l1 -57v-87q-23 -4 -53.5 -4t-53.5 4v87l1 57l-56 -1h-91q-5 23 -5 48.5t5 46.5h91zM464 0h-398q-5 22 -5 48t5 50h398q5 -24 5 -50t-5 -48z" />
    <glyph glyph-name="twosuperior" unicode="&#xb2;" horiz-adv-x="420" 
d="M360 423q0 -20 -2 -44q-9 -49 -60 -49h-216q-33 43 -33 63q0 53 71 112l80 66q38 31 38 64q0 20 -13 33.5t-33.5 13.5t-36 -15t-22.5 -38q-20 1 -45 11.5t-34 23.5q12 47 51.5 79t100.5 32t101.5 -38t40.5 -89t-20.5 -84t-61.5 -64l-56 -43q-43 -33 -52 -43q53 9 95 9
h107z" />
    <glyph glyph-name="threesuperior" unicode="&#xb3;" horiz-adv-x="420" 
d="M317 664l-53 -49q-9 -9 -27 -19q51 -2 84.5 -37.5t33.5 -96t-48 -98.5t-115 -38q-90 0 -146 46q8 40 41 70q48 -32 84.5 -32t56 16.5t19.5 44.5t-16 45t-39.5 17t-41.5 -8q-13 5 -25.5 22t-15.5 33l73 70q19 19 42 33l-3 3q-30 -5 -79 -5h-74q-6 17 -6 43t8 44h248
q21 -37 21 -60.5t-22 -43.5z" />
    <glyph glyph-name="acute" unicode="&#xb4;" horiz-adv-x="398" 
d="M116 588l148 163q26 -9 49.5 -30.5t31.5 -46.5l-177 -135q-37 11 -52 49z" />
    <glyph glyph-name="paragraph" unicode="&#xb6;" horiz-adv-x="702" 
d="M282 61v184h-16q-102 0 -166 57.5t-64 167t64 164t172 54.5q31 0 129 -4l7 -7v-593q0 -66 -9.5 -108.5t-38.5 -74.5q-51 -58 -159 -58q-72 0 -137 24q-1 20 7 47.5t21 44.5q59 -21 102.5 -21t65.5 26.5t22 96.5zM643 575l-46 1v-708q-25 -5 -63.5 -5t-62.5 5v808l7 7h200
q6 -18 6 -54t-6 -54h-35z" />
    <glyph glyph-name="periodcentered" unicode="&#xb7;" horiz-adv-x="314" 
d="M93 231q-9 18 -9 53.5t9 54.5q25 15 65 15t63 -15q9 -22 9 -54.5t-9 -53.5q-21 -15 -63 -15t-65 15z" />
    <glyph glyph-name="cedilla" unicode="&#xb8;" horiz-adv-x="398" 
d="M141 -75q9 37 26 75h71q-9 -17 -16 -35q43 -2 69.5 -26.5t26.5 -66t-36 -70.5t-89 -29t-84 22q2 35 22 58q21 -14 49 -14q41 0 41 35q0 16 -10 25.5t-24 9.5t-26 -4q-14 5 -20 20z" />
    <glyph glyph-name="onesuperior" unicode="&#xb9;" horiz-adv-x="420" 
d="M49 625q53 32 83.5 64t52.5 77q25 6 46 6t51 -6v-344h82q6 -21 6 -45t-6 -45h-284q-5 25 -5 46t5 44h100v130q0 18 4 72q-28 -36 -88 -64q-37 19 -47 65z" />
    <glyph glyph-name="ordmasculine" unicode="&#xba;" horiz-adv-x="429" 
d="M334 654q58 -61 58 -165t-58 -162q-46 -44 -120 -44t-118 44q-58 58 -58 162t58 165q45 43 118.5 43t119.5 -43zM215 616q-72 0 -72 -126t72 -126t72 126t-72 126z" />
    <glyph glyph-name="guillemotright" unicode="&#xbb;" horiz-adv-x="581" 
d="M39 97l132 157l-137 161q7 19 28 38.5t42 25.5l199 -186q7 -15 7 -37t-7 -37l-196 -187q-21 6 -41 25.5t-27 39.5zM282 97l132 157l-137 161q7 19 28 38.5t42 25.5l199 -186q7 -15 7 -37t-7 -37l-196 -187q-21 6 -41 25.5t-27 39.5z" />
    <glyph glyph-name="onequarter" unicode="&#xbc;" horiz-adv-x="988" 
d="M31 542q53 32 83.5 64t52.5 77q25 6 46 6t51 -6v-344h82q6 -21 6 -45t-6 -45h-284q-5 25 -5 46t5 44h100v130q0 18 4 72q-28 -36 -88 -64q-37 19 -47 65zM280 0l377 683q25 6 64 6t56 -6l-377 -683q-25 -6 -64 -6t-56 6zM790 79l-46 -1h-114q-22 37 -22 58t14 52l116 255
h19t39 -5.5t41 -17.5l-66 -144q-34 -77 -61 -112l2 -2q35 4 78 4v46q0 35 19 55t51 20h27l3 -4v-117h57q4 -15 4 -38t-8 -49h-53v-74q-19 -5 -49 -5t-51 5v74z" />
    <glyph glyph-name="onehalf" unicode="&#xbd;" horiz-adv-x="988" 
d="M267 0l377 683q25 6 64 6t56 -6l-377 -683q-25 -6 -64 -6t-56 6zM31 542q53 32 83.5 64t52.5 77q25 6 46 6t51 -6v-344h82q6 -21 6 -45t-6 -45h-284q-5 25 -5 46t5 44h100v130q0 18 4 72q-28 -36 -88 -64q-37 19 -47 65zM942 96q0 -20 -2 -44q-9 -49 -60 -49h-216
q-33 43 -33 63q0 53 71 112l80 66q38 31 38 64q0 20 -13 33.5t-33.5 13.5t-36 -15t-22.5 -38q-20 1 -45 11.5t-34 23.5q12 47 51.5 79t100.5 32t101.5 -38t40.5 -89t-20.5 -84t-61.5 -64l-56 -43q-43 -33 -52 -43q52 9 95 9h107z" />
    <glyph glyph-name="threequarters" unicode="&#xbe;" horiz-adv-x="988" 
d="M260 0l377 683q25 6 64 6t56 -6l-377 -683q-25 -6 -64 -6t-56 6zM318 581l-53 -49q-9 -9 -27 -19q51 -2 84.5 -37.5t33.5 -96t-48 -98.5t-115 -38q-90 0 -146 46q8 40 41 70q48 -32 84.5 -32t56 16.5t19.5 44.5t-16 45t-39.5 17t-41.5 -8q-13 5 -25.5 22t-15.5 33l73 70
q19 19 42 33l-3 3q-30 -5 -79 -5h-74q-6 17 -6 43t8 44h248q21 -37 21 -60.5t-22 -43.5zM780 79l-46 -1h-114q-22 37 -22 58t14 52l116 255h19t39 -5.5t41 -17.5l-66 -144q-34 -77 -61 -112l2 -2q35 4 78 4v46q0 35 19 55t51 20h27l3 -4v-117h57q4 -15 4 -38t-8 -49h-53v-74
q-19 -5 -49 -5t-51 5v74z" />
    <glyph glyph-name="questiondown" unicode="&#xbf;" horiz-adv-x="405" 
d="M403 -150q-94 -53 -190.5 -53t-148.5 48t-52 127q0 124 131 195l62 34l8 92q18 6 47.5 6t47.5 -6l6 -149l-10 -13l-51 -25q-110 -55 -110 -121q0 -37 24 -59t72.5 -22t118.5 37q17 -14 30.5 -40.5t14.5 -50.5zM323 388q-25 -14 -64.5 -14t-62.5 14q-10 18 -10 52t10 51
q23 14 62.5 14t64.5 -14q9 -15 9 -51t-9 -52z" />
    <glyph glyph-name="Agrave" unicode="&#xc0;" horiz-adv-x="622" 
d="M427 157l-52 -1h-139l-51 1l-49 -158q-20 -5 -57 -5t-59 9l-5 6l224 674q33 5 76 5t70 -6l221 -674q-29 -16 -66.5 -16t-54 14.5t-28.5 53.5zM216 259l47 1h89q3 0 19.5 -0.5t24.5 -0.5l-34 112q-28 89 -54 191h-5q-12 -61 -43 -162zM224 917l211 -127q-8 -45 -36 -62
l-227 91q3 27 19 56t33 42z" />
    <glyph glyph-name="Aacute" unicode="&#xc1;" horiz-adv-x="622" 
d="M427 157l-52 -1h-139l-51 1l-49 -158q-20 -5 -57 -5t-59 9l-5 6l224 674q33 5 76 5t70 -6l221 -674q-29 -16 -66.5 -16t-54 14.5t-28.5 53.5zM216 259l47 1h89q3 0 19.5 -0.5t24.5 -0.5l-34 112q-28 89 -54 191h-5q-12 -61 -43 -162zM203 790l211 127q17 -13 33 -42
t19 -56l-227 -91q-14 8 -24 26t-12 36z" />
    <glyph glyph-name="Acircumflex" unicode="&#xc2;" horiz-adv-x="622" 
d="M427 157l-52 -1h-139l-51 1l-49 -158q-20 -5 -57 -5t-59 9l-5 6l224 674q33 5 76 5t70 -6l221 -674q-29 -16 -66.5 -16t-54 14.5t-28.5 53.5zM216 259l47 1h89q3 0 19.5 -0.5t24.5 -0.5l-34 112q-28 89 -54 191h-5q-12 -61 -43 -162zM426 736l-114 75l-117 -84
q-15 5 -31.5 21t-20.5 32l115 116q26 6 52.5 6t54.5 -5l113 -108q-6 -18 -21.5 -32.5t-30.5 -20.5z" />
    <glyph glyph-name="Atilde" unicode="&#xc3;" horiz-adv-x="622" 
d="M427 157l-52 -1h-139l-51 1l-49 -158q-20 -5 -57 -5t-59 9l-5 6l224 674q33 5 76 5t70 -6l221 -674q-29 -16 -66.5 -16t-54 14.5t-28.5 53.5zM216 259l47 1h89q3 0 19.5 -0.5t24.5 -0.5l-34 112q-28 89 -54 191h-5q-12 -61 -43 -162zM320 757l-52 25q-16 9 -34.5 9
t-36.5 -24l-10 -14q-19 1 -37.5 11.5t-24.5 26.5l8 19q17 36 46 57.5t62 21.5t65 -17l52 -25q18 -9 35 -9t36 25l10 14q19 -1 37 -12t25 -26l-8 -19q-37 -79 -111 -79q-30 0 -62 16z" />
    <glyph glyph-name="Adieresis" unicode="&#xc4;" horiz-adv-x="622" 
d="M427 157l-52 -1h-139l-51 1l-49 -158q-20 -5 -57 -5t-59 9l-5 6l224 674q33 5 76 5t70 -6l221 -674q-29 -16 -66.5 -16t-54 14.5t-28.5 53.5zM216 259l47 1h89q3 0 19.5 -0.5t24.5 -0.5l-34 112q-28 89 -54 191h-5q-12 -61 -43 -162zM369 839q23 14 53.5 14t53.5 -14
q10 -15 10 -45t-10 -44q-20 -14 -53.5 -14t-53.5 14q-12 15 -12 44t12 45zM150 839q21 14 52.5 14t54.5 -14q11 -15 11 -45.5t-11 -43.5q-20 -14 -54 -14t-53 14q-10 14 -10 44t10 45z" />
    <glyph glyph-name="Aring" unicode="&#xc5;" horiz-adv-x="622" 
d="M427 157l-52 -1h-139l-51 1l-49 -158q-20 -5 -57 -5t-59 9l-5 6l224 674h1q-56 34 -56 101q0 50 36 84.5t93 34.5t92.5 -34.5t35.5 -84.5q0 -67 -57 -102h1l221 -674q-29 -16 -66.5 -16t-54 14.5t-28.5 53.5zM216 259l47 1h89q3 0 19.5 -0.5t24.5 -0.5l-34 112
q-28 89 -54 191h-5q-12 -61 -43 -162zM263 784q0 -23 14 -38t36 -15t35.5 15t13.5 38t-13.5 37.5t-35.5 14.5t-36 -14.5t-14 -37.5z" />
    <glyph glyph-name="AE" unicode="&#xc6;" horiz-adv-x="880" 
d="M520 164l-1 -60q42 2 69 2h250q0 -31 -3 -47q-11 -61 -81 -61h-285q-34 0 -53.5 20.5t-19.5 56.5v82q-16 -1 -46 -1h-89q-32 0 -49 1l-72 -157q-19 -5 -60.5 -5t-64.5 8l-4 7l316 662q25 11 76 11h413q4 -19 4 -49.5t-10 -57.5h-291l1 -68v-112q24 1 64 1h176
q7 -24 7 -52.5t-7 -52.5h-176q-40 0 -64 1v-129zM350 259l46 -1v304h-4q-36 -91 -68 -163l-65 -141l37 1h54z" />
    <glyph glyph-name="Ccedilla" unicode="&#xc7;" horiz-adv-x="606" 
d="M259 -75q7 32 20 63q-63 6 -110 37.5t-73 82.5q-52 98 -52 231q0 177 79.5 267.5t195.5 90.5t184.5 -58.5t68.5 -141.5q0 -71 -72 -71q-26 0 -50 7v8q0 63 -29.5 108.5t-98.5 45.5q-144 0 -144 -257q0 -116 40.5 -178.5t117.5 -62.5t172 74q20 -14 38 -37.5t23 -44.5
q-86 -86 -220 -101q-7 -17 -9 -23q43 -2 69.5 -26.5t26.5 -66t-36 -70.5t-89 -29t-84 22q2 35 22 58q21 -14 49 -14q41 0 41 35q0 15 -10 25t-24 10t-26 -4q-14 5 -20 20z" />
    <glyph glyph-name="Egrave" unicode="&#xc8;" horiz-adv-x="569" 
d="M210 163l-1 -59q42 2 69 2h248q0 -31 -2 -47q-11 -61 -82 -61h-285q-34 0 -53.5 20.5t-19.5 56.5v601l7 7h413q5 -24 5 -49.5t-10 -57.5h-290l1 -68v-112q24 1 64 1h174q7 -24 7 -52.5t-7 -52.5h-174q-40 0 -64 1v-130zM210 917l211 -127q-8 -45 -36 -62l-227 91
q3 27 19 56t33 42z" />
    <glyph glyph-name="Eacute" unicode="&#xc9;" horiz-adv-x="569" 
d="M210 163l-1 -59q42 2 69 2h248q0 -31 -2 -47q-11 -61 -82 -61h-285q-34 0 -53.5 20.5t-19.5 56.5v601l7 7h413q5 -24 5 -49.5t-10 -57.5h-290l1 -68v-112q24 1 64 1h174q7 -24 7 -52.5t-7 -52.5h-174q-40 0 -64 1v-130zM189 790l211 127q17 -13 33 -42t19 -56l-227 -91
q-14 8 -24 26t-12 36z" />
    <glyph glyph-name="Ecircumflex" unicode="&#xca;" horiz-adv-x="569" 
d="M210 163l-1 -59q42 2 69 2h248q0 -31 -2 -47q-11 -61 -82 -61h-285q-34 0 -53.5 20.5t-19.5 56.5v601l7 7h413q5 -24 5 -49.5t-10 -57.5h-290l1 -68v-112q24 1 64 1h174q7 -24 7 -52.5t-7 -52.5h-174q-40 0 -64 1v-130zM412 736l-114 75l-117 -84q-15 5 -31.5 21
t-20.5 32l115 116q26 6 52.5 6t54.5 -5l113 -108q-6 -18 -21.5 -32.5t-30.5 -20.5z" />
    <glyph glyph-name="Edieresis" unicode="&#xcb;" horiz-adv-x="569" 
d="M210 163l-1 -59q42 2 69 2h248q0 -31 -2 -47q-11 -61 -82 -61h-285q-34 0 -53.5 20.5t-19.5 56.5v601l7 7h413q5 -24 5 -49.5t-10 -57.5h-290l1 -68v-112q24 1 64 1h174q7 -24 7 -52.5t-7 -52.5h-174q-40 0 -64 1v-130zM355 839q23 14 53.5 14t53.5 -14q10 -15 10 -45
t-10 -44q-20 -14 -53.5 -14t-53.5 14q-12 15 -12 44t12 45zM136 839q21 14 52.5 14t54.5 -14q11 -15 11 -45.5t-11 -43.5q-20 -14 -54 -14t-53 14q-10 14 -10 44t10 45z" />
    <glyph glyph-name="Igrave" unicode="&#xcc;" horiz-adv-x="303" 
d="M88 0v683q24 5 63 5t64 -5v-683q-25 -5 -64 -5t-63 5zM63 918l211 -127q-8 -45 -36 -62l-227 91q3 27 19 56t33 42z" />
    <glyph glyph-name="Iacute" unicode="&#xcd;" horiz-adv-x="303" 
d="M88 0v683q24 5 63 5t64 -5v-683q-25 -5 -64 -5t-63 5zM42 791l211 127q17 -13 33 -42t19 -56l-227 -91q-14 8 -24 26t-12 36z" />
    <glyph glyph-name="Icircumflex" unicode="&#xce;" horiz-adv-x="303" 
d="M88 0v683q24 5 63 5t64 -5v-683q-25 -5 -64 -5t-63 5zM265 737l-114 75l-117 -84q-15 5 -31.5 21t-20.5 32l115 116q26 6 52.5 6t54.5 -5l113 -108q-6 -18 -21.5 -32.5t-30.5 -20.5z" />
    <glyph glyph-name="Idieresis" unicode="&#xcf;" horiz-adv-x="303" 
d="M88 0v683q24 5 63 5t64 -5v-683q-25 -5 -64 -5t-63 5zM208 840q23 14 53.5 14t53.5 -14q10 -15 10 -45t-10 -44q-20 -14 -53.5 -14t-53.5 14q-12 15 -12 44t12 45zM-11 840q21 14 52.5 14t54.5 -14q11 -15 11 -45.5t-11 -43.5q-20 -14 -54 -14t-53 14q-10 14 -10 44
t10 45z" />
    <glyph glyph-name="Eth" unicode="&#xd0;" horiz-adv-x="671" 
d="M602.5 514q22.5 -72 22.5 -172.5t-22.5 -173t-85.5 -123.5q-30 -25 -80.5 -37.5t-103 -12.5t-226.5 4l-7 6v289h-73q-5 20 -5 51.5t5 52.5h73v280l7 6q116 4 233 4q45 0 95.5 -13t81.5 -38q63 -51 85.5 -123zM369 294h-144v-198h114q155 0 155 246q0 174 -74 224
q-33 21 -93 21t-102 1v-190h144q5 -28 5 -52.5t-5 -51.5z" />
    <glyph glyph-name="Ntilde" unicode="&#xd1;" horiz-adv-x="686" 
d="M595 688l6 -6v-680q-28 -7 -73 -7t-79 5l-191 396q-25 51 -61 139l-4 -1q10 -125 10 -266v-268q-26 -5 -59.5 -5t-58.5 5v681q28 7 72.5 7t77.5 -5l189 -395q26 -54 66 -147l3 1q-10 142 -10 268v200q0 42 16 60t54 18h42zM353 757l-52 25q-16 9 -34.5 9t-36.5 -24
l-10 -14q-19 1 -37.5 11.5t-24.5 26.5l8 19q17 36 46 57.5t62 21.5t65 -17l52 -25q18 -9 35 -9t36 25l10 14q19 -1 37 -12t25 -26l-8 -19q-37 -79 -111 -79q-30 0 -62 16z" />
    <glyph glyph-name="Ograve" unicode="&#xd2;" horiz-adv-x="661" 
d="M177 341.5q0 -255.5 153.5 -255.5t153.5 255.5t-153.5 255.5t-153.5 -255.5zM151 47q-107 91 -107 294.5t107 294.5q73 61 179 61t181 -61q106 -91 106 -294.5t-106 -294.5q-75 -61 -181 -61t-179 61zM242 917l211 -127q-8 -45 -36 -62l-227 91q3 27 19 56t33 42z" />
    <glyph glyph-name="Oacute" unicode="&#xd3;" horiz-adv-x="661" 
d="M177 341.5q0 -255.5 153.5 -255.5t153.5 255.5t-153.5 255.5t-153.5 -255.5zM151 47q-107 91 -107 294.5t107 294.5q73 61 179 61t181 -61q106 -91 106 -294.5t-106 -294.5q-75 -61 -181 -61t-179 61zM221 790l211 127q17 -13 33 -42t19 -56l-227 -91q-14 8 -24 26
t-12 36z" />
    <glyph glyph-name="Ocircumflex" unicode="&#xd4;" horiz-adv-x="661" 
d="M177 341.5q0 -255.5 153.5 -255.5t153.5 255.5t-153.5 255.5t-153.5 -255.5zM151 47q-107 91 -107 294.5t107 294.5q73 61 179 61t181 -61q106 -91 106 -294.5t-106 -294.5q-75 -61 -181 -61t-179 61zM444 736l-114 75l-117 -84q-15 5 -31.5 21t-20.5 32l115 116
q26 6 52.5 6t54.5 -5l113 -108q-6 -18 -21.5 -32.5t-30.5 -20.5z" />
    <glyph glyph-name="Otilde" unicode="&#xd5;" horiz-adv-x="661" 
d="M177 341.5q0 -255.5 153.5 -255.5t153.5 255.5t-153.5 255.5t-153.5 -255.5zM151 47q-107 91 -107 294.5t107 294.5q73 61 179 61t181 -61q106 -91 106 -294.5t-106 -294.5q-75 -61 -181 -61t-179 61zM334 764l-52 25q-16 9 -34 9t-37 -25l-11 -14q-19 1 -37 11.5
t-24 26.5l8 20q37 78 111 78q28 0 62 -16l52 -26q18 -9 35 -9t37 25l10 14q19 -1 36.5 -11.5t24.5 -26.5l-8 -19q-17 -37 -46 -58t-62 -21t-65 17z" />
    <glyph glyph-name="Odieresis" unicode="&#xd6;" horiz-adv-x="661" 
d="M177 341.5q0 -255.5 153.5 -255.5t153.5 255.5t-153.5 255.5t-153.5 -255.5zM151 47q-107 91 -107 294.5t107 294.5q73 61 179 61t181 -61q106 -91 106 -294.5t-106 -294.5q-75 -61 -181 -61t-179 61zM387 839q23 14 53.5 14t53.5 -14q10 -15 10 -45t-10 -44
q-20 -14 -53.5 -14t-53.5 14q-12 15 -12 44t12 45zM168 839q21 14 52.5 14t54.5 -14q11 -15 11 -45.5t-11 -43.5q-20 -14 -54 -14t-53 14q-10 14 -10 44t10 45z" />
    <glyph glyph-name="multiply" unicode="&#xd7;" 
d="M264 222l-123 -125q-25 12 -45.5 32.5t-29.5 42.5l125 123l-35 36l-90 89q11 26 31 44q19 21 44 31l89 -90l34 -36q36 36 124 125q25 -11 45 -31t30 -43l-89 -90l-36 -34l125 -124q-21 -51 -75 -75l-88 90z" />
    <glyph glyph-name="Oslash" unicode="&#xd8;" horiz-adv-x="664" 
d="M44 342q0 202 108 294q71 61 180 61q71 0 122 -24l41 73q53 -9 81 -45l-46 -82q89 -96 89 -277q0 -203 -107 -295q-73 -61 -180 -61q-70 0 -123 24l-40 -71q-53 9 -81 44l45 81q-89 96 -89 278zM197 183l208 398q-32 19 -76 19t-77 -23t-50 -63q-29 -72 -29 -171t24 -160
zM490 342q0 94 -24 158l-207 -398q32 -19 73 -19q158 0 158 259z" />
    <glyph glyph-name="Ugrave" unicode="&#xd9;" horiz-adv-x="671" 
d="M595 683v-438q0 -124 -69 -191.5t-190.5 -67.5t-190.5 67.5t-69 191.5v437l6 6h48q38 0 55.5 -19.5t17.5 -61.5v-363q0 -156 132 -156t132 156v439q25 5 64 5t64 -5zM245 917l211 -127q-8 -45 -36 -62l-227 91q3 27 19 56t33 42z" />
    <glyph glyph-name="Uacute" unicode="&#xda;" horiz-adv-x="671" 
d="M595 683v-438q0 -124 -69 -191.5t-190.5 -67.5t-190.5 67.5t-69 191.5v437l6 6h48q38 0 55.5 -19.5t17.5 -61.5v-363q0 -156 132 -156t132 156v439q25 5 64 5t64 -5zM224 790l211 127q17 -13 33 -42t19 -56l-227 -91q-14 8 -24 26t-12 36z" />
    <glyph glyph-name="Ucircumflex" unicode="&#xdb;" horiz-adv-x="671" 
d="M595 683v-438q0 -124 -69 -191.5t-190.5 -67.5t-190.5 67.5t-69 191.5v437l6 6h48q38 0 55.5 -19.5t17.5 -61.5v-363q0 -156 132 -156t132 156v439q25 5 64 5t64 -5zM447 736l-114 75l-117 -84q-15 5 -31.5 21t-20.5 32l115 116q26 6 52.5 6t54.5 -5l113 -108
q-6 -18 -21.5 -32.5t-30.5 -20.5z" />
    <glyph glyph-name="Udieresis" unicode="&#xdc;" horiz-adv-x="671" 
d="M595 683v-438q0 -124 -69 -191.5t-190.5 -67.5t-190.5 67.5t-69 191.5v437l6 6h48q38 0 55.5 -19.5t17.5 -61.5v-363q0 -156 132 -156t132 156v439q25 5 64 5t64 -5zM390 839q23 14 53.5 14t53.5 -14q10 -15 10 -45t-10 -44q-20 -14 -53.5 -14t-53.5 14q-12 15 -12 44
t12 45zM171 839q21 14 52.5 14t54.5 -14q11 -15 11 -45.5t-11 -43.5q-20 -14 -54 -14t-53 14q-10 14 -10 44t10 45z" />
    <glyph glyph-name="Yacute" unicode="&#xdd;" horiz-adv-x="511" 
d="M309 477l82 206q21 5 55 5t59 -9l6 -8l-192 -457v-214q-25 -5 -64 -5t-63 5v218l-192 450q41 23 73 23t47 -12t27 -41l67 -164q25 -64 43 -132h6q13 53 46 135zM149 790l211 127q17 -13 33 -42t19 -56l-227 -91q-14 8 -24 26t-12 36z" />
    <glyph glyph-name="Thorn" unicode="&#xde;" horiz-adv-x="579" 
d="M85 0v683q24 5 63 5t64 -5v-99q62 2 94 2q107 0 171.5 -55.5t64.5 -165.5t-64.5 -167t-171.5 -57h-94v-141q-25 -5 -64 -5t-63 5zM212 240l86 1q62 0 87.5 36t25.5 87t-25.5 86.5t-87.5 35.5h-86v-246z" />
    <glyph glyph-name="germandbls" unicode="&#xdf;" horiz-adv-x="639" 
d="M101 0v379l-86 -1q-5 23 -5 48.5t5 48.5l86 -1v29q0 95 61.5 145.5t166 50.5t167.5 -55t63 -148q0 -35 -16 -77h-2l2 -1q-37 -8 -56 -27.5t-19 -41t31 -48.5l37 -34q73 -70 73 -135t-53 -105.5t-130 -40.5t-137 29q1 21 12 47t26 40q39 -21 75 -21t56 14.5t20 40.5
t-36 59l-41 36q-64 58 -64 112q0 35 25 67.5t68 50.5q3 16 3 32q0 48 -27.5 79.5t-77.5 31.5q-101 0 -101 -114v-490q-30 -5 -62 -5t-64 5z" />
    <glyph glyph-name="agrave" unicode="&#xe0;" horiz-adv-x="509" 
d="M470 56q-5 -17 -17.5 -35.5t-25.5 -28.5q-62 7 -91 58q-66 -64 -143 -64t-116 45t-39 104q0 84 54.5 126.5t139.5 42.5q46 0 87 -4v30q0 79 -76 79q-54 0 -153 -36q-29 31 -33 89q108 45 216 45q75 0 122 -42t47 -127v-204q0 -55 28 -78zM219 81q52 0 100 48v89
q-35 4 -76 4t-62 -21t-21 -53t16 -49.5t43 -17.5zM189 751l149 -163q-7 -17 -22 -30.5t-31 -18.5l-177 135q9 25 32.5 47t48.5 30z" />
    <glyph glyph-name="aacute" unicode="&#xe1;" horiz-adv-x="509" 
d="M470 56q-5 -17 -17.5 -35.5t-25.5 -28.5q-62 7 -91 58q-66 -64 -143 -64t-116 45t-39 104q0 84 54.5 126.5t139.5 42.5q46 0 87 -4v30q0 79 -76 79q-54 0 -153 -36q-29 31 -33 89q108 45 216 45q75 0 122 -42t47 -127v-204q0 -55 28 -78zM219 81q52 0 100 48v89
q-35 4 -76 4t-62 -21t-21 -53t16 -49.5t43 -17.5zM165 588l148 163q26 -9 49.5 -30.5t31.5 -46.5l-177 -135q-37 11 -52 49z" />
    <glyph glyph-name="acircumflex" unicode="&#xe2;" horiz-adv-x="509" 
d="M470 56q-5 -17 -17.5 -35.5t-25.5 -28.5q-62 7 -91 58q-66 -64 -143 -64t-116 45t-39 104q0 84 54.5 126.5t139.5 42.5q46 0 87 -4v30q0 79 -76 79q-54 0 -153 -36q-29 31 -33 89q108 45 216 45q75 0 122 -42t47 -127v-204q0 -55 28 -78zM219 81q52 0 100 48v89
q-35 4 -76 4t-62 -21t-21 -53t16 -49.5t43 -17.5zM343 548l-93 90l-99 -96q-37 15 -56 50l106 134q23 8 49 8t54 -7l95 -126q-15 -37 -56 -53z" />
    <glyph glyph-name="atilde" unicode="&#xe3;" horiz-adv-x="509" 
d="M470 56q-5 -17 -17.5 -35.5t-25.5 -28.5q-62 7 -91 58q-66 -64 -143 -64t-116 45t-39 104q0 84 54.5 126.5t139.5 42.5q46 0 87 -4v30q0 79 -76 79q-54 0 -153 -36q-29 31 -33 89q108 45 216 45q75 0 122 -42t47 -127v-204q0 -55 28 -78zM219 81q52 0 100 48v89
q-35 4 -76 4t-62 -21t-21 -53t16 -49.5t43 -17.5zM254 572l-50 25q-16 9 -33 9t-36 -25l-10 -14q-18 1 -35.5 11.5t-23.5 26.5l8 20q16 36 44 57.5t59 21.5t63 -16l50 -26q18 -9 34 -9t35 25l10 14q18 -1 35 -11.5t24 -26.5l-8 -20q-16 -37 -44.5 -58t-60 -21t-61.5 17z" />
    <glyph glyph-name="adieresis" unicode="&#xe4;" horiz-adv-x="509" 
d="M470 56q-5 -17 -17.5 -35.5t-25.5 -28.5q-62 7 -91 58q-66 -64 -143 -64t-116 45t-39 104q0 84 54.5 126.5t139.5 42.5q46 0 87 -4v30q0 79 -76 79q-54 0 -153 -36q-29 31 -33 89q108 45 216 45q75 0 122 -42t47 -127v-204q0 -55 28 -78zM219 81q52 0 100 48v89
q-35 4 -76 4t-62 -21t-21 -53t16 -49.5t43 -17.5zM288 573q-8 22 -8 43.5t8 43.5q24 14 55 14t55 -14q8 -19 8 -44.5t-8 -42.5q-23 -13 -55 -13t-55 13zM96 573q-8 19 -8 43.5t8 43.5q25 14 55.5 14t54.5 -14q8 -22 8 -44t-8 -43q-23 -13 -55 -13t-55 13z" />
    <glyph glyph-name="aring" unicode="&#xe5;" horiz-adv-x="509" 
d="M470 56q-5 -17 -17.5 -35.5t-25.5 -28.5q-62 7 -91 58q-66 -64 -143 -64t-116 45t-39 104q0 84 54.5 126.5t139.5 42.5q46 0 87 -4v30q0 79 -76 79q-54 0 -153 -36q-29 31 -33 89q108 45 216 45q75 0 122 -42t47 -127v-204q0 -55 28 -78zM219 81q52 0 100 48v89
q-35 4 -76 4t-62 -21t-21 -53t16 -49.5t43 -17.5zM154 574.5q-36 34.5 -36 85t36 85t93 34.5t93 -34.5t36 -85t-36 -85t-93 -34.5t-93 34.5zM197 660q0 -23 14 -38t36 -15t36 15t14 38t-14 38t-36 15t-36 -15t-14 -38z" />
    <glyph glyph-name="ae" unicode="&#xe6;" horiz-adv-x="771" 
d="M721 208h-278q3 -59 26.5 -91.5t79.5 -32.5t133 35q29 -29 35 -76q-78 -57 -189 -57t-165 78q-76 -78 -176 -78q-71 0 -110 45t-39 105q0 83 54.5 125.5t139.5 42.5q37 0 87 -5v32q0 78 -75 78q-60 0 -154 -36q-29 31 -33 89q108 45 200.5 45t135.5 -55q56 58 143.5 58
t141 -60t53.5 -153q0 -46 -10 -89zM219 81q63 0 112 58q-11 36 -12 79q-36 4 -76.5 4t-61.5 -20.5t-21 -52.5t16 -50t43 -18zM529 420q-79 0 -87 -124h172v11q0 50 -20.5 81.5t-64.5 31.5z" />
    <glyph glyph-name="ccedilla" unicode="&#xe7;" horiz-adv-x="472" 
d="M191 -75q10 38 21 64q-85 13 -129 82.5t-44 174.5q0 132 63 198t150 66t137.5 -46.5t50.5 -111t-62 -64.5q-23 0 -51 5v12q0 50 -15.5 80.5t-60.5 30.5q-85 0 -85 -165.5t103 -165.5q52 0 117 48q16 -10 30 -31t19 -41q-61 -61 -153 -73q-7 -12 -10 -23q43 -2 69.5 -26.5
t26.5 -66t-35.5 -70.5t-89 -29t-84.5 22q2 33 23 58q21 -14 48 -14q42 0 42 35q0 15 -10.5 25t-24.5 10t-26 -4q-15 5 -20 20z" />
    <glyph glyph-name="egrave" unicode="&#xe8;" horiz-adv-x="499" 
d="M446 208h-280q3 -59 26.5 -91.5t82.5 -32.5t131 35q28 -27 36 -76q-80 -57 -192.5 -57t-161.5 73t-49 189t54 189t154.5 73t154.5 -60.5t54 -152.5q0 -46 -10 -89zM253 420q-82 0 -88 -124h174v12q0 50 -21 81t-65 31zM198 751l149 -163q-7 -17 -22 -30.5t-31 -18.5
l-177 135q9 25 32.5 47t48.5 30z" />
    <glyph glyph-name="eacute" unicode="&#xe9;" horiz-adv-x="499" 
d="M446 208h-280q3 -59 26.5 -91.5t82.5 -32.5t131 35q28 -27 36 -76q-80 -57 -192.5 -57t-161.5 73t-49 189t54 189t154.5 73t154.5 -60.5t54 -152.5q0 -46 -10 -89zM253 420q-82 0 -88 -124h174v12q0 50 -21 81t-65 31zM173 588l148 163q26 -9 49.5 -30.5t31.5 -46.5
l-177 -135q-37 11 -52 49z" />
    <glyph glyph-name="ecircumflex" unicode="&#xea;" horiz-adv-x="499" 
d="M446 208h-280q3 -59 26.5 -91.5t82.5 -32.5t131 35q28 -27 36 -76q-80 -57 -192.5 -57t-161.5 73t-49 189t54 189t154.5 73t154.5 -60.5t54 -152.5q0 -46 -10 -89zM253 420q-82 0 -88 -124h174v12q0 50 -21 81t-65 31zM351 548l-93 90l-99 -96q-37 15 -56 50l106 134
q23 8 49 8t54 -7l95 -126q-15 -37 -56 -53z" />
    <glyph glyph-name="edieresis" unicode="&#xeb;" horiz-adv-x="499" 
d="M446 208h-280q3 -59 26.5 -91.5t82.5 -32.5t131 35q28 -27 36 -76q-80 -57 -192.5 -57t-161.5 73t-49 189t54 189t154.5 73t154.5 -60.5t54 -152.5q0 -46 -10 -89zM253 420q-82 0 -88 -124h174v12q0 50 -21 81t-65 31zM296 573q-8 22 -8 43.5t8 43.5q24 14 55 14t55 -14
q8 -19 8 -44.5t-8 -42.5q-23 -13 -55 -13t-55 13zM104 573q-8 19 -8 43.5t8 43.5q25 14 55.5 14t54.5 -14q8 -22 8 -44t-8 -43q-23 -13 -55 -13t-55 13z" />
    <glyph glyph-name="igrave" unicode="&#xec;" horiz-adv-x="277" 
d="M208 399v-399q-28 -5 -61 -5t-63 5v353q0 54 -45 54h-12q-5 17 -5 43t5 45q36 4 73 4h16q43 0 67.5 -27t24.5 -73zM68 751l149 -163q-7 -17 -22 -30.5t-31 -18.5l-177 135q9 25 32.5 47t48.5 30z" />
    <glyph glyph-name="iacute" unicode="&#xed;" horiz-adv-x="277" 
d="M208 399v-399q-28 -5 -61 -5t-63 5v353q0 54 -45 54h-12q-5 17 -5 43t5 45q36 4 73 4h16q43 0 67.5 -27t24.5 -73zM44 588l148 163q26 -9 49.5 -30.5t31.5 -46.5l-177 -135q-37 11 -52 49z" />
    <glyph glyph-name="icircumflex" unicode="&#xee;" horiz-adv-x="277" 
d="M208 399v-399q-28 -5 -61 -5t-63 5v353q0 54 -45 54h-12q-5 17 -5 43t5 45q36 4 73 4h16q43 0 67.5 -27t24.5 -73zM222 548l-93 90l-99 -96q-37 15 -56 50l106 134q23 8 49 8t54 -7l95 -126q-15 -37 -56 -53z" />
    <glyph glyph-name="idieresis" unicode="&#xef;" horiz-adv-x="277" 
d="M208 399v-399q-28 -5 -61 -5t-63 5v353q0 54 -45 54h-12q-5 17 -5 43t5 45q36 4 73 4h16q43 0 67.5 -27t24.5 -73zM167 573q-8 22 -8 43.5t8 43.5q25 14 55 14t55 -14q8 -19 8 -44.5t-8 -42.5q-23 -13 -55 -13t-55 13zM-25 573q-8 19 -8 43.5t8 43.5q24 14 54.5 14
t55.5 -14q8 -22 8 -44t-8 -43q-23 -13 -55 -13t-55 13z" />
    <glyph glyph-name="eth" unicode="&#xf0;" horiz-adv-x="518" 
d="M101 571l80 55q-36 27 -73 47q3 23 17.5 45.5t31.5 31.5q60 -26 112 -63h1l85 59q34 -25 42 -61l-69 -47q152 -150 152 -391q0 -134 -71 -204q-57 -57 -150.5 -57t-150.5 57q-71 70 -71 196.5t72 194.5q56 53 141 53q31 0 60 -13q-18 49 -71 103l-96 -66q-15 9 -27 26.5
t-15 33.5zM353 247q0 76 -13 125q-40 25 -80 25q-96 0 -96 -159.5t94.5 -159.5t94.5 169z" />
    <glyph glyph-name="ntilde" unicode="&#xf1;" horiz-adv-x="546" 
d="M479 335v-222q0 -61 20 -94q-33 -26 -73.5 -26t-55.5 19t-15 59v238q0 45 -12 64.5t-43 19.5q-57 0 -105 -50v-343q-28 -5 -61 -5t-63 5v495l7 6h46q57 0 68 -60q73 64 145.5 64t107 -47t34.5 -123zM286 572l-50 25q-16 9 -33 9t-36 -25l-10 -14q-18 1 -35.5 11.5
t-23.5 26.5l8 20q16 36 44 57.5t59 21.5t63 -16l50 -26q18 -9 34 -9t35 25l10 14q18 -1 35 -11.5t24 -26.5l-8 -20q-16 -37 -44.5 -58t-60 -21t-61.5 17z" />
    <glyph glyph-name="ograve" unicode="&#xf2;" horiz-adv-x="521" 
d="M482 248q0 -134 -71 -205q-57 -57 -150.5 -57t-150.5 57q-71 71 -71 205t71 205q57 57 150.5 57t150.5 -57q71 -71 71 -205zM166 248q0 -168 94.5 -168t94.5 168t-94.5 168t-94.5 -168zM203 751l149 -163q-7 -17 -22 -30.5t-31 -18.5l-177 135q9 25 32.5 47t48.5 30z" />
    <glyph glyph-name="oacute" unicode="&#xf3;" horiz-adv-x="521" 
d="M482 248q0 -134 -71 -205q-57 -57 -150.5 -57t-150.5 57q-71 71 -71 205t71 205q57 57 150.5 57t150.5 -57q71 -71 71 -205zM166 248q0 -168 94.5 -168t94.5 168t-94.5 168t-94.5 -168zM178 588l148 163q26 -9 49.5 -30.5t31.5 -46.5l-177 -135q-37 11 -52 49z" />
    <glyph glyph-name="ocircumflex" unicode="&#xf4;" horiz-adv-x="521" 
d="M482 248q0 -134 -71 -205q-57 -57 -150.5 -57t-150.5 57q-71 71 -71 205t71 205q57 57 150.5 57t150.5 -57q71 -71 71 -205zM166 248q0 -168 94.5 -168t94.5 168t-94.5 168t-94.5 -168zM356 548l-93 90l-99 -96q-37 15 -56 50l106 134q23 8 49 8t54 -7l95 -126
q-15 -37 -56 -53z" />
    <glyph glyph-name="otilde" unicode="&#xf5;" horiz-adv-x="521" 
d="M482 248q0 -134 -71 -205q-57 -57 -150.5 -57t-150.5 57q-71 71 -71 205t71 205q57 57 150.5 57t150.5 -57q71 -71 71 -205zM166 248q0 -168 94.5 -168t94.5 168t-94.5 168t-94.5 -168zM267 572l-50 25q-16 9 -33 9t-36 -25l-10 -14q-18 1 -35.5 11.5t-23.5 26.5l8 20
q16 36 44 57.5t59 21.5t63 -16l50 -26q18 -9 34 -9t35 25l10 14q18 -1 35 -11.5t24 -26.5l-8 -20q-16 -37 -44.5 -58t-60 -21t-61.5 17z" />
    <glyph glyph-name="odieresis" unicode="&#xf6;" horiz-adv-x="521" 
d="M482 248q0 -134 -71 -205q-57 -57 -150.5 -57t-150.5 57q-71 71 -71 205t71 205q57 57 150.5 57t150.5 -57q71 -71 71 -205zM166 248q0 -168 94.5 -168t94.5 168t-94.5 168t-94.5 -168zM301 573q-8 22 -8 43.5t8 43.5q24 14 55 14t55 -14q8 -19 8 -44.5t-8 -42.5
q-23 -13 -55 -13t-55 13zM109 573q-8 19 -8 43.5t8 43.5q25 14 55.5 14t54.5 -14q8 -22 8 -44t-8 -43q-23 -13 -55 -13t-55 13z" />
    <glyph glyph-name="divide" unicode="&#xf7;" 
d="M198 474q0 28 9 46q23 13 59 13t56 -13q10 -17 10 -46t-10 -46q-18 -13 -57 -13t-58 13q-9 18 -9 46zM207 70q-9 18 -9 46.5t9 46.5q23 13 59 13t56 -13q10 -17 10 -46.5t-10 -46.5q-20 -13 -57 -13t-58 13zM475 245h-420q-5 20 -5 51t5 52h420q5 -21 5 -52t-5 -51z" />
    <glyph glyph-name="oslash" unicode="&#xf8;" horiz-adv-x="523" 
d="M413 452q70 -70 70 -205t-70 -204q-57 -57 -152 -57q-46 0 -89 16l-35 -60q-43 9 -66 37l37 65q-68 68 -68 203.5t70 205.5q57 57 151 57q50 0 88 -16l35 60q42 -9 66 -36zM367 248q0 55 -13 97l-136 -261q18 -9 44 -9q105 0 105 173zM156 248q0 -58 12 -95l136 259
q-18 9 -42 9q-106 0 -106 -173z" />
    <glyph glyph-name="ugrave" unicode="&#xf9;" horiz-adv-x="548" 
d="M67 160v223q0 60 -19 93q30 27 71.5 27t56.5 -19t15 -59v-238q0 -46 12 -65.5t43 -19.5q57 0 105 50v344q28 5 62 5t62 -5v-355q0 -64 28 -86q-9 -39 -42 -63q-71 9 -97 71q-77 -72 -161 -72q-67 0 -101.5 46.5t-34.5 122.5zM209 751l149 -163q-7 -17 -22 -30.5
t-31 -18.5l-177 135q9 25 32.5 47t48.5 30z" />
    <glyph glyph-name="uacute" unicode="&#xfa;" horiz-adv-x="548" 
d="M67 160v223q0 60 -19 93q30 27 71.5 27t56.5 -19t15 -59v-238q0 -46 12 -65.5t43 -19.5q57 0 105 50v344q28 5 62 5t62 -5v-355q0 -64 28 -86q-9 -39 -42 -63q-71 9 -97 71q-77 -72 -161 -72q-67 0 -101.5 46.5t-34.5 122.5zM185 588l148 163q26 -9 49.5 -30.5
t31.5 -46.5l-177 -135q-37 11 -52 49z" />
    <glyph glyph-name="ucircumflex" unicode="&#xfb;" horiz-adv-x="548" 
d="M67 160v223q0 60 -19 93q30 27 71.5 27t56.5 -19t15 -59v-238q0 -46 12 -65.5t43 -19.5q57 0 105 50v344q28 5 62 5t62 -5v-355q0 -64 28 -86q-9 -39 -42 -63q-71 9 -97 71q-77 -72 -161 -72q-67 0 -101.5 46.5t-34.5 122.5zM363 548l-93 90l-99 -96q-37 15 -56 50
l106 134q23 8 49 8t54 -7l95 -126q-15 -37 -56 -53z" />
    <glyph glyph-name="udieresis" unicode="&#xfc;" horiz-adv-x="548" 
d="M67 160v223q0 60 -19 93q30 27 71.5 27t56.5 -19t15 -59v-238q0 -46 12 -65.5t43 -19.5q57 0 105 50v344q28 5 62 5t62 -5v-355q0 -64 28 -86q-9 -39 -42 -63q-71 9 -97 71q-77 -72 -161 -72q-67 0 -101.5 46.5t-34.5 122.5zM308 573q-8 22 -8 43.5t8 43.5q24 14 55 14
t55 -14q8 -19 8 -44.5t-8 -42.5q-23 -13 -55 -13t-55 13zM116 573q-8 19 -8 43.5t8 43.5q24 14 55 14t55 -14q8 -22 8 -44t-8 -43q-23 -13 -55 -13t-55 13z" />
    <glyph glyph-name="yacute" unicode="&#xfd;" horiz-adv-x="479" 
d="M470 484l-129 -469q-33 -121 -82.5 -177.5t-148.5 -56.5q-54 0 -106 18v16.5t6.5 35t19.5 37.5q42 -14 83 -14q78 0 108 107l4 13q-36 1 -57.5 14t-30.5 44l-125 434q40 18 76 18q47 0 61 -54l59 -216q3 -9 32 -141q1 -7 9 -7l101 410q23 5 56 5t60 -9zM157 588l148 163
q26 -9 49.5 -30.5t31.5 -46.5l-177 -135q-37 11 -52 49z" />
    <glyph glyph-name="thorn" unicode="&#xfe;" 
d="M444.5 437q46.5 -68 46.5 -188.5t-57 -189t-135 -68.5q-55 0 -109 28v-158q0 -42 -14.5 -59.5t-52.5 -17.5h-45l-7 7v938l7 7h45q38 0 52.5 -17.5t14.5 -59.5v-203q56 49 132 49t122.5 -68zM286 404q-56 0 -96 -56v-230q47 -32 87 -32t64 43t24 122t-22 116t-57 37z" />
    <glyph glyph-name="ydieresis" unicode="&#xff;" horiz-adv-x="479" 
d="M470 484l-129 -469q-33 -121 -82.5 -177.5t-148.5 -56.5q-54 0 -106 18v16.5t6.5 35t19.5 37.5q42 -14 83 -14q78 0 108 107l4 13q-36 1 -57.5 14t-30.5 44l-125 434q40 18 76 18q47 0 61 -54l59 -216q3 -9 32 -141q1 -7 9 -7l101 410q23 5 56 5t60 -9zM279 573
q-8 22 -8 43.5t8 43.5q25 14 55 14t55 -14q8 -19 8 -44.5t-8 -42.5q-23 -13 -55 -13t-55 13zM87 573q-8 19 -8 43.5t8 43.5q24 14 54.5 14t55.5 -14q8 -22 8 -44t-8 -43q-23 -13 -55 -13t-55 13z" />
    <glyph glyph-name="Aogonek" unicode="&#x104;" horiz-adv-x="622" 
d="M236 156l-51 1l-49 -158q-20 -5 -57 -5t-59 9l-5 6l224 674q33 5 76 5t70 -6l221 -674q-87 -50 -87 -104q0 -20 13 -31t36.5 -11t51.5 16q25 -22 27 -58q-43 -38 -101.5 -38t-90 26t-31.5 70q0 65 68 123q-22 13 -35 59l-30 97l-52 -1h-139zM216 259l47 1h89
q3 0 19.5 -0.5t24.5 -0.5l-34 112q-28 89 -54 191h-5q-12 -61 -43 -162z" />
    <glyph glyph-name="aogonek" unicode="&#x105;" horiz-adv-x="539" 
d="M471 -122q25 -21 28 -58q-45 -38 -103 -38t-89 26t-31 70q0 78 88 141q-16 13 -27 32q-67 -65 -144 -65t-116 45t-39 104q0 84 54.5 126.5t139.5 42.5q46 0 87 -4v30q0 79 -76 79q-54 0 -153 -36q-29 31 -33 89q108 45 216 45q75 0 122 -42t47 -127v-204q0 -51 32 -77
q-11 -33 -50 -69q-54 -47 -54 -84q0 -20 13 -31t36.5 -11t51.5 16zM219 81q52 0 100 48v89q-35 4 -76 4t-62 -21t-21 -53t16 -49.5t43 -17.5z" />
    <glyph glyph-name="Cacute" unicode="&#x106;" horiz-adv-x="606" 
d="M450 433v8q0 63 -29.5 108.5t-98.5 45.5q-144 0 -144 -257q0 -116 40.5 -178.5t117.5 -62.5t172 74q20 -14 38 -37.5t23 -44.5q-45 -45 -114 -74t-143 -29t-127 30t-83 82q-58 99 -58 241q0 177 79.5 267.5t195.5 90.5t184.5 -58.5t68.5 -141.5q0 -71 -72 -71
q-26 0 -50 7zM213 791l211 127q17 -13 33 -42t19 -56l-227 -91q-14 8 -24 26t-12 36z" />
    <glyph glyph-name="cacute" unicode="&#x107;" horiz-adv-x="472" 
d="M327 293v12q0 50 -15.5 80.5t-60.5 30.5q-85 0 -85 -165.5t103 -165.5q52 0 117 48q16 -10 30 -31t19 -41q-75 -75 -182 -75t-160.5 72t-53.5 196t63 190t150 66t137.5 -46.5t50.5 -111t-62 -64.5q-23 0 -51 5zM170 588l148 163q26 -9 49.5 -30.5t31.5 -46.5l-177 -135
q-37 11 -52 49z" />
    <glyph glyph-name="Ccaron" unicode="&#x10c;" horiz-adv-x="606" 
d="M450 433v8q0 63 -29.5 108.5t-98.5 45.5q-144 0 -144 -257q0 -116 40.5 -178.5t117.5 -62.5t172 74q20 -14 38 -37.5t23 -44.5q-45 -45 -114 -74t-143 -29t-127 30t-83 82q-58 99 -58 241q0 177 79.5 267.5t195.5 90.5t184.5 -58.5t68.5 -141.5q0 -71 -72 -71
q-26 0 -50 7zM205 904l115 -75l117 84q15 -5 32 -20t21 -32l-117 -117q-25 -6 -52 -6t-55 5l-112 108q5 18 20.5 32.5t30.5 20.5z" />
    <glyph glyph-name="ccaron" unicode="&#x10d;" horiz-adv-x="472" 
d="M327 293v12q0 50 -15.5 80.5t-60.5 30.5q-85 0 -85 -165.5t103 -165.5q52 0 117 48q16 -10 30 -31t19 -41q-75 -75 -182 -75t-160.5 72t-53.5 196t63 190t150 66t137.5 -46.5t50.5 -111t-62 -64.5q-23 0 -51 5zM157 736l93 -89l100 97q35 -13 56 -50l-107 -135
q-22 -8 -36 -8q-42 0 -67 7l-95 126q8 18 24.5 32.5t31.5 19.5z" />
    <glyph glyph-name="Dcaron" unicode="&#x10e;" horiz-adv-x="656" 
d="M587.5 514q22.5 -72 22.5 -172.5t-22.5 -173t-85.5 -123.5q-31 -25 -81.5 -37.5t-102.5 -12.5t-226 4l-7 6v673l7 6q115 4 232 4q46 0 96.5 -13t81.5 -38q63 -51 85.5 -123zM473.5 254.5q5.5 38.5 5.5 87t-5.5 87t-21 77t-48.5 60t-92 21.5t-100 1v-492h111q48 0 81 21.5
t48.5 60t21 77zM195 903l115 -75l117 84q15 -5 32 -20t21 -32l-117 -117q-25 -6 -52 -6t-55 5l-112 108q5 18 20.5 32.5t30.5 20.5z" />
    <glyph glyph-name="dcaron" unicode="&#x10f;" horiz-adv-x="623" 
d="M84 55.5q-45 69.5 -45 190.5t57.5 190t138.5 69q51 0 105 -28v252l6 7h48q37 0 52 -17.5t15 -59.5v-517q0 -62 28 -86q-5 -17 -17.5 -35.5t-25.5 -28.5q-63 9 -89 60q-59 -66 -143.5 -66t-129.5 69.5zM245 88q55 0 95 54v236q-51 31 -89 31t-61.5 -43.5t-23.5 -122.5
t22 -117t57 -38zM592 558q-13 -4 -33 -4t-38 9l11 222q14 4 29 4q53 0 80 -20z" />
    <glyph glyph-name="Eogonek" unicode="&#x118;" horiz-adv-x="571" 
d="M210 163l-1 -59q42 2 69 2h248q0 -31 -2 -47q-8 -41 -42 -54q-46 -20 -67.5 -47t-21.5 -50.5t12.5 -34.5t36 -11t51.5 16q27 -23 28 -58q-45 -38 -103 -38t-89 26t-31 71q0 69 66 119h-207q-34 0 -53.5 20.5t-19.5 56.5v601l7 7h413q5 -24 5 -49.5t-10 -57.5h-290l1 -68
v-112q24 1 64 1h174q7 -24 7 -52.5t-7 -52.5h-174q-40 0 -64 1v-130z" />
    <glyph glyph-name="eogonek" unicode="&#x119;" horiz-adv-x="499" 
d="M446 208h-280q3 -59 26.5 -91.5t82.5 -32.5t131 35q28 -27 36 -76q-32 -22 -64 -34q-69 -50 -69 -105q0 -20 13 -31t36.5 -11t51.5 16q25 -22 27 -58q-43 -38 -101.5 -38t-89.5 26.5t-31 77t56 101.5q-7 -1 -20 -1q-114 0 -163 73t-49 189t54 189t154.5 73t154.5 -60.5
t54 -152.5q0 -46 -10 -89zM253 420q-82 0 -88 -124h174v12q0 50 -21 81t-65 31z" />
    <glyph glyph-name="Ecaron" unicode="&#x11a;" horiz-adv-x="569" 
d="M210 163l-1 -59q42 2 69 2h248q0 -31 -2 -47q-11 -61 -82 -61h-285q-34 0 -53.5 20.5t-19.5 56.5v601l7 7h413q5 -24 5 -49.5t-10 -57.5h-290l1 -68v-112q24 1 64 1h174q7 -24 7 -52.5t-7 -52.5h-174q-40 0 -64 1v-130zM181 903l115 -75l117 84q15 -5 32 -20t21 -32
l-117 -117q-25 -6 -52 -6t-55 5l-112 108q5 18 20.5 32.5t30.5 20.5z" />
    <glyph glyph-name="ecaron" unicode="&#x11b;" horiz-adv-x="499" 
d="M446 208h-280q3 -59 26.5 -91.5t82.5 -32.5t131 35q28 -27 36 -76q-80 -57 -192.5 -57t-161.5 73t-49 189t54 189t154.5 73t154.5 -60.5t54 -152.5q0 -46 -10 -89zM253 420q-82 0 -88 -124h174v12q0 50 -21 81t-65 31zM160 736l93 -89l100 97q35 -13 56 -50l-107 -135
q-22 -8 -36 -8q-42 0 -67 7l-95 126q8 18 24.5 32.5t31.5 19.5z" />
    <glyph glyph-name="Hbar" unicode="&#x126;" horiz-adv-x="688" 
d="M216 298l1 -74v-224q-26 -5 -64.5 -5t-63.5 5v492h-68q-6 19 -6 47t6 48h68v96q25 5 63.5 5t64.5 -5v-96h254v96q25 5 64 5t64 -5v-96h69q5 -21 5 -48t-5 -47h-69v-492q-26 -5 -64 -5t-64 5v224l1 74l-54 -1h-148zM216 402l54 1h148l54 -1l-1 76v14h-254v-14z" />
    <glyph glyph-name="hbar" unicode="&#x127;" horiz-adv-x="546" 
d="M195 659v-16l153 3q6 -24 6 -42t-6 -40l-153 2v-124q71 62 143 62t106.5 -46.5t34.5 -122.5v-222q0 -61 20 -94q-31 -26 -72.5 -26t-56.5 19t-15 59v237q0 46 -11.5 65.5t-42.5 19.5q-57 0 -106 -52v-341q-28 -5 -59.5 -5t-61.5 5v565l-72 -1q-5 19 -5 40.5t5 41.5l72 -2
v85l7 7h47q38 0 52.5 -17.5t14.5 -59.5z" />
    <glyph glyph-name="Itilde" unicode="&#x128;" horiz-adv-x="303" 
d="M88 0v683q24 5 63 5t64 -5v-683q-25 -5 -64 -5t-63 5zM159 758l-52 25q-16 9 -34.5 9t-36.5 -24l-10 -14q-19 1 -37.5 11.5t-24.5 26.5l8 19q17 36 46 57.5t62 21.5t65 -17l52 -25q18 -9 35 -9t36 25l10 14q19 -1 37 -12t25 -26l-8 -19q-37 -79 -111 -79q-30 0 -62 16z
" />
    <glyph glyph-name="itilde" unicode="&#x129;" horiz-adv-x="277" 
d="M208 399v-399q-28 -5 -61 -5t-63 5v353q0 54 -45 54h-12q-5 17 -5 43t5 45q36 4 73 4h16q43 0 67.5 -27t24.5 -73zM133 572l-50 25q-16 9 -33 9t-36 -25l-10 -14q-18 1 -35.5 11.5t-23.5 26.5l8 20q16 36 44 57.5t59 21.5t63 -16l50 -26q18 -9 34 -9t35 25l10 14
q18 -1 35 -11.5t24 -26.5l-8 -20q-16 -37 -44.5 -58t-60 -21t-61.5 17z" />
    <glyph glyph-name="dotlessi" unicode="&#x131;" horiz-adv-x="282" 
d="M212 399v-399q-28 -5 -61 -5t-63 5v353q0 54 -45 54h-12q-5 17 -5 43t5 45q36 4 73 4h16q43 0 67.5 -27t24.5 -73z" />
    <glyph glyph-name="IJ" unicode="&#x132;" horiz-adv-x="756" 
d="M88 0v683q24 5 63 5t64 -5v-683q-25 -5 -64 -5t-63 5zM354 128q52 -32 104 -32t74 34t22 109v444q25 5 64 5t64 -5v-429q0 -157 -62 -215q-52 -49 -147.5 -49t-164.5 43q10 56 46 95z" />
    <glyph glyph-name="ij" unicode="&#x133;" horiz-adv-x="564" 
d="M212 399v-399q-28 -5 -61 -5t-63 5v353q0 54 -45 54h-12q-5 17 -5 43t5 45q36 4 73 4h16q43 0 67.5 -27t24.5 -73zM67 586q-10 23 -10 49.5t10 49.5q26 14 64.5 14t61.5 -14q10 -23 10 -49.5t-10 -49.5q-23 -14 -64.5 -14t-61.5 14zM495 399v-377q0 -87 -12.5 -125
t-30.5 -57q-37 -41 -120 -60q-30 27 -35 76q43 21 59 46t16 77v374q0 54 -45 54h-21q-5 17 -5 43t5 45q40 4 82 4h17q42 0 66 -26.5t24 -73.5zM348 586q-10 23 -10 49.5t10 49.5q26 14 64.5 14t61.5 -14q10 -23 10 -49.5t-10 -49.5q-23 -14 -64.5 -14t-61.5 14z" />
    <glyph glyph-name="Jcircumflex" unicode="&#x134;" horiz-adv-x="457" 
d="M56 128q52 -32 104 -32t74 34t22 109v444q25 5 64 5t64 -5v-429q0 -157 -62 -215q-52 -49 -147.5 -49t-164.5 43q10 56 46 95zM434 736l-114 75l-117 -84q-15 5 -31.5 21t-20.5 32l115 116q26 6 52.5 6t54.5 -5l113 -108q-6 -18 -21.5 -32.5t-30.5 -20.5z" />
    <glyph glyph-name="jcircumflex" unicode="&#x135;" horiz-adv-x="281" 
d="M213 399v-377q0 -87 -12.5 -125t-30.5 -57q-37 -41 -120 -60q-30 27 -35 76q43 21 59 46t16 77v374q0 54 -45 54h-21q-5 17 -5 43t5 45q40 4 82 4h17q42 0 66 -26.5t24 -73.5zM225 548l-93 90l-99 -96q-37 15 -56 50l106 134q23 8 49 8t54 -7l95 -126q-15 -37 -56 -53z
" />
    <glyph glyph-name="Kcommaaccent" unicode="&#x136;" horiz-adv-x="606" 
d="M593 32q-27 -39 -85 -39q-34 0 -50.5 17t-30.5 58l-47 135q-19 53 -43.5 74.5t-65.5 21.5q-9 0 -59 -2v-297q-25 -5 -64 -5t-63 5v683q24 5 63 5t64 -5v-277l44 1q16 0 24 6t17 24l116 202q14 26 28.5 37t46.5 11t70 -3l8 -10l-140 -246q-19 -35 -46 -59q47 -9 72.5 -38
t44.5 -81l49 -137q20 -57 47 -81zM267 -73q29 21 62 21t52 -7q10 -20 10 -55q0 -54 -36 -96.5t-99 -63.5q-32 10 -39 51q63 39 63 98q0 28 -13 52z" />
    <glyph glyph-name="kcommaaccent" unicode="&#x137;" horiz-adv-x="510" 
d="M419 191l30 -79q22 -63 48 -81q-34 -38 -83 -38q-29 0 -43.5 14t-27.5 48l-36 94q-14 36 -29.5 48t-37.5 12t-48 -2v-207q-28 -5 -59.5 -5t-61.5 5v729l7 7h47q38 0 52.5 -17.5t14.5 -59.5v-349l27 1q15 0 26 16l73 123q28 49 74 49t69 -1l6 -8l-97 -164q-18 -31 -40 -46
q61 -19 89 -89zM218 -73q29 21 62 21t52 -7q10 -20 10 -55q0 -54 -36 -96.5t-99 -63.5q-32 10 -39 51q63 39 63 98q0 28 -13 52z" />
    <glyph glyph-name="kgreenlandic" unicode="&#x138;" horiz-adv-x="510" 
d="M419 191l30 -79q22 -63 48 -81q-34 -38 -83 -38q-29 0 -43.5 14t-27.5 48l-36 94q-14 36 -29.5 48t-37.5 12t-48 -2v-207q-28 -5 -59.5 -5t-61.5 5v495l7 6h47q38 0 52.5 -17.5t14.5 -59.5v-114l27 1q15 0 26 16l73 123q28 49 74 49t69 -1l6 -8l-97 -164q-18 -31 -40 -46
q61 -19 89 -89z" />
    <glyph glyph-name="Ldot" unicode="&#x13f;" horiz-adv-x="516" 
d="M302 108h189q0 -33 -3 -48q-11 -62 -83 -62h-247q-34 0 -54 20.5t-20 56.5v607l7 6h47q38 0 56 -19t18 -62v-502q48 3 90 3zM345 306q-9 20 -9 50.5t9 52.5q25 14 59 14t57 -14q8 -20 8 -53t-8 -50q-19 -15 -57 -15t-59 15z" />
    <glyph glyph-name="ldot" unicode="&#x140;" horiz-adv-x="370" 
d="M232 92h33q10 -30 10 -53t-3 -35q-58 -9 -94 -9q-108 0 -108 117v617l6 7h48q37 0 52 -17.5t15 -59.5v-522q0 -45 41 -45zM257 306q-9 20 -9 50.5t9 52.5q25 14 59 14t57 -14q8 -20 8 -53t-8 -50q-19 -15 -57 -15t-59 15z" />
    <glyph glyph-name="Lslash" unicode="&#x141;" horiz-adv-x="524" 
d="M220 607v-190l167 58l9 -5q8 -22 8 -46t-5 -49l-179 -59v-211q48 3 90 3h190q0 -28 -4 -48q-11 -62 -83 -62h-247q-34 0 -54 20.5t-20 56.5v201l-69 -24l-9 5q-7 21 -7 45t5 50l80 27v303l7 6h48q38 0 55.5 -19.5t17.5 -61.5z" />
    <glyph glyph-name="lslash" unicode="&#x142;" horiz-adv-x="344" 
d="M263 92h33q10 -26 10 -53t-2 -35q-58 -9 -94 -9q-56 0 -82 28.5t-26 88.5v177l-69 -35l-9 5q-7 22 -7 45t5 46l80 40v339l6 7h47q37 0 52 -17.5t15 -59.5v-208l77 40l9 -5q7 -20 7 -43t-5 -48l-88 -45v-213q0 -45 41 -45z" />
    <glyph glyph-name="Nacute" unicode="&#x143;" horiz-adv-x="686" 
d="M595 688l6 -6v-680q-28 -7 -73 -7t-79 5l-191 396q-25 51 -61 139l-4 -1q10 -125 10 -266v-268q-26 -5 -59.5 -5t-58.5 5v681q28 7 72.5 7t77.5 -5l189 -395q26 -54 66 -147l3 1q-10 142 -10 268v200q0 42 16 60t54 18h42zM236 790l211 127q17 -13 33 -42t19 -56
l-227 -91q-14 8 -24 26t-12 36z" />
    <glyph glyph-name="nacute" unicode="&#x144;" horiz-adv-x="546" 
d="M479 335v-222q0 -61 20 -94q-33 -26 -73.5 -26t-55.5 19t-15 59v238q0 45 -12 64.5t-43 19.5q-57 0 -105 -50v-343q-28 -5 -61 -5t-63 5v495l7 6h46q57 0 68 -60q73 64 145.5 64t107 -47t34.5 -123zM197 588l148 163q26 -9 49.5 -30.5t31.5 -46.5l-177 -135
q-37 11 -52 49z" />
    <glyph glyph-name="Ncaron" unicode="&#x147;" horiz-adv-x="686" 
d="M595 688l6 -6v-680q-28 -7 -73 -7t-79 5l-191 396q-25 51 -61 139l-4 -1q10 -125 10 -266v-268q-26 -5 -59.5 -5t-58.5 5v681q28 7 72.5 7t77.5 -5l189 -395q26 -54 66 -147l3 1q-10 142 -10 268v200q0 42 16 60t54 18h42zM228 903l115 -75l117 84q15 -5 32 -20t21 -32
l-117 -117q-25 -6 -52 -6t-55 5l-112 108q5 18 20.5 32.5t30.5 20.5z" />
    <glyph glyph-name="ncaron" unicode="&#x148;" horiz-adv-x="546" 
d="M479 335v-222q0 -61 20 -94q-33 -26 -73.5 -26t-55.5 19t-15 59v238q0 45 -12 64.5t-43 19.5q-57 0 -105 -50v-343q-28 -5 -61 -5t-63 5v495l7 6h46q57 0 68 -60q73 64 145.5 64t107 -47t34.5 -123zM184 736l93 -89l100 97q35 -13 56 -50l-107 -135q-22 -8 -36 -8
q-42 0 -67 7l-95 126q8 18 24.5 32.5t31.5 19.5z" />
    <glyph glyph-name="OE" unicode="&#x152;" horiz-adv-x="904" 
d="M551 163l-1 -59q42 2 70 2h248q0 -31 -3 -46q-9 -61 -81 -61h-316q-87 -13 -136 -13q-107 0 -180 61q-108 92 -108 294.5t108 294.5q73 61 180 61q39 0 135 -14h379q5 -24 5 -50.5t-11 -56.5h-290l1 -68v-112q24 1 65 1h174q7 -24 7 -52.5t-7 -52.5h-174q-41 0 -65 1
v-130zM332 86q42 0 96 14v483q-54 14 -96 14q-156 0 -156 -255.5t156 -255.5z" />
    <glyph glyph-name="oe" unicode="&#x153;" horiz-adv-x="818" 
d="M767 208h-278q3 -59 26.5 -91.5t81 -32.5t131.5 35q28 -28 36 -76q-80 -57 -188 -57t-158 71q-53 -71 -152 -71t-156 57q-71 70 -71 204.5t71 205.5q57 57 156.5 57t153.5 -75q51 75 150.5 75t153 -60t53.5 -153q0 -46 -10 -89zM166 248q0 -168 94.5 -168t94.5 168
t-94.5 168t-94.5 -168zM576 420q-80 0 -88 -124h172v11q0 50 -20.5 81.5t-63.5 31.5z" />
    <glyph glyph-name="Racute" unicode="&#x154;" horiz-adv-x="606" 
d="M550 478q0 -67 -36.5 -115.5t-89.5 -67.5q49 -17 73 -87l39 -105q19 -51 47 -72q-28 -39 -86 -39q-33 0 -49.5 17.5t-30.5 58.5l-45 123q-13 36 -33.5 55t-61.5 19h-66v-265q-25 -5 -63.5 -5t-62.5 5v678l7 6q158 4 224 4q107 0 170.5 -54t63.5 -156zM211 590v-225
q72 2 97 2q111 0 111 111t-111 111q-65 0 -97 1zM191 790l211 127q17 -13 33 -42t19 -56l-227 -91q-14 8 -24 26t-12 36z" />
    <glyph glyph-name="racute" unicode="&#x155;" horiz-adv-x="379" 
d="M42 438q4 17 16.5 36.5t25.5 28.5q78 -12 105 -89q40 89 129 89q23 0 58 -7q0 -65 -30 -116q-15 4 -45 6q-61 0 -98 -65v-321q-28 -5 -61 -5t-63 5v335q0 73 -37 103zM123 588l148 163q26 -9 49.5 -30.5t31.5 -46.5l-177 -135q-37 11 -52 49z" />
    <glyph glyph-name="Rcommaaccent" unicode="&#x156;" horiz-adv-x="606" 
d="M550 478q0 -67 -36.5 -115.5t-89.5 -67.5q49 -17 73 -87l39 -105q19 -51 47 -72q-28 -39 -86 -39q-33 0 -49.5 17.5t-30.5 58.5l-45 123q-13 36 -33.5 55t-61.5 19h-66v-265q-25 -5 -63.5 -5t-62.5 5v678l7 6q158 4 224 4q107 0 170.5 -54t63.5 -156zM211 590v-225
q72 2 97 2q111 0 111 111t-111 111q-65 0 -97 1zM265 -73q29 21 62 21t52 -7q10 -20 10 -55q0 -54 -36 -96.5t-99 -63.5q-32 10 -39 51q63 39 63 98q0 28 -13 52z" />
    <glyph glyph-name="rcommaaccent" unicode="&#x157;" horiz-adv-x="379" 
d="M42 438q4 17 16.5 36.5t25.5 28.5q78 -12 105 -89q40 89 129 89q23 0 58 -7q0 -65 -30 -116q-15 4 -45 6q-61 0 -98 -65v-321q-28 -5 -61 -5t-63 5v335q0 73 -37 103zM90 -73q29 21 62 21t52 -7q10 -20 10 -55q0 -54 -36 -96.5t-99 -63.5q-32 10 -39 51q63 39 63 98
q0 28 -13 52z" />
    <glyph glyph-name="Rcaron" unicode="&#x158;" horiz-adv-x="606" 
d="M550 478q0 -67 -36.5 -115.5t-89.5 -67.5q49 -17 73 -87l39 -105q19 -51 47 -72q-28 -39 -86 -39q-33 0 -49.5 17.5t-30.5 58.5l-45 123q-13 36 -33.5 55t-61.5 19h-66v-265q-25 -5 -63.5 -5t-62.5 5v678l7 6q158 4 224 4q107 0 170.5 -54t63.5 -156zM211 590v-225
q72 2 97 2q111 0 111 111t-111 111q-65 0 -97 1zM183 903l115 -75l117 84q15 -5 32 -20t21 -32l-117 -117q-25 -6 -52 -6t-55 5l-112 108q5 18 20.5 32.5t30.5 20.5z" />
    <glyph glyph-name="rcaron" unicode="&#x159;" horiz-adv-x="379" 
d="M42 438q4 17 16.5 36.5t25.5 28.5q78 -12 105 -89q40 89 129 89q23 0 58 -7q0 -65 -30 -116q-15 4 -45 6q-61 0 -98 -65v-321q-28 -5 -61 -5t-63 5v335q0 73 -37 103zM110 736l93 -89l100 97q35 -13 56 -50l-107 -135q-22 -8 -36 -8q-42 0 -67 7l-95 126q8 18 24.5 32.5
t31.5 19.5z" />
    <glyph glyph-name="Sacute" unicode="&#x15a;" horiz-adv-x="556" 
d="M24 61q7 59 52 96q104 -66 201 -66q52 0 81 23t29 60q2 59 -80 95l-118 50q-139 62 -139 178q0 86 66 143t172.5 57t214.5 -54q-3 -59 -44 -98q-96 48 -175 48q-49 0 -76.5 -23.5t-27.5 -56.5q0 -49 73 -80l118 -50q150 -65 150 -191q0 -92 -65 -149t-192.5 -57
t-239.5 75zM176 790l211 127q17 -13 33 -42t19 -56l-227 -91q-14 8 -24 26t-12 36z" />
    <glyph glyph-name="sacute" unicode="&#x15b;" horiz-adv-x="440" 
d="M26 36q1 20 12 45.5t26 39.5q80 -43 140 -43q36 0 56.5 14t20.5 37q0 39 -56 60l-56 21q-126 47 -126 145q0 70 51 112.5t135.5 42.5t168.5 -39q1 -23 -9.5 -49t-26.5 -39q-74 34 -135 34q-28 0 -44.5 -13t-16.5 -35q0 -32 53 -51l61 -23q129 -48 129 -154
q0 -71 -53.5 -113t-148 -42t-181.5 50zM139 588l148 163q26 -9 49.5 -30.5t31.5 -46.5l-177 -135q-37 11 -52 49z" />
    <glyph glyph-name="Scaron" unicode="&#x160;" horiz-adv-x="556" 
d="M24 61q7 59 52 96q104 -66 201 -66q52 0 81 23t29 60q2 59 -80 95l-118 50q-139 62 -139 178q0 86 66 143t172.5 57t214.5 -54q-3 -59 -44 -98q-96 48 -175 48q-49 0 -76.5 -23.5t-27.5 -56.5q0 -49 73 -80l118 -50q150 -65 150 -191q0 -92 -65 -149t-192.5 -57
t-239.5 75zM168 903l115 -75l117 84q15 -5 32 -20t21 -32l-117 -117q-25 -6 -52 -6t-55 5l-112 108q5 18 20.5 32.5t30.5 20.5z" />
    <glyph glyph-name="scaron" unicode="&#x161;" horiz-adv-x="440" 
d="M26 36q1 20 12 45.5t26 39.5q80 -43 140 -43q36 0 56.5 14t20.5 37q0 39 -56 60l-56 21q-126 47 -126 145q0 70 51 112.5t135.5 42.5t168.5 -39q1 -23 -9.5 -49t-26.5 -39q-74 34 -135 34q-28 0 -44.5 -13t-16.5 -35q0 -32 53 -51l61 -23q129 -48 129 -154
q0 -71 -53.5 -113t-148 -42t-181.5 50zM126 736l93 -89l100 97q35 -13 56 -50l-107 -135q-22 -8 -36 -8q-42 0 -67 7l-95 126q8 18 24.5 32.5t31.5 19.5z" />
    <glyph glyph-name="Tcaron" unicode="&#x164;" horiz-adv-x="499" 
d="M313 578l1 -74v-504q-26 -5 -64 -5t-63 5v578l-60 -1h-113q-5 23 -5 52.5t5 53.5h473q7 -25 7 -52.5t-16.5 -40.5t-52.5 -13h-51l-60 1h-1zM132 903l115 -75l117 84q15 -5 32 -20t21 -32l-117 -117q-25 -6 -52 -6t-55 5l-112 108q5 18 20.5 32.5t30.5 20.5z" />
    <glyph glyph-name="tcaron" unicode="&#x165;" horiz-adv-x="383" 
d="M333 497q5 -20 5 -45.5t-5 -44.5l-122 2v-272q0 -45 43 -45h64q10 -30 10 -53t-3 -35q-63 -9 -119 -9q-116 0 -116 117v296l-75 -1q-5 19 -5 44.5t5 45.5l75 -2v76q0 42 15 59.5t52 17.5h48l6 -7v-146zM343 558q-13 -4 -33 -4t-38 9l11 222q14 4 29 4q53 0 80 -20z" />
    <glyph glyph-name="Uring" unicode="&#x16e;" horiz-adv-x="671" 
d="M595 683v-438q0 -124 -69 -191.5t-190.5 -67.5t-190.5 67.5t-69 191.5v437l6 6h48q38 0 55.5 -19.5t17.5 -61.5v-363q0 -156 132 -156t132 156v439q25 5 64 5t64 -5zM241 698.5q-36 34.5 -36 85t36 85t93 34.5t93 -34.5t36 -85t-36 -85t-93 -34.5t-93 34.5zM284 784
q0 -23 14 -38t36 -15t36 15t14 38t-14 37.5t-36 14.5t-36 -14.5t-14 -37.5z" />
    <glyph glyph-name="uring" unicode="&#x16f;" horiz-adv-x="548" 
d="M67 160v223q0 60 -19 93q30 27 71.5 27t56.5 -19t15 -59v-238q0 -46 12 -65.5t43 -19.5q57 0 105 50v344q28 5 62 5t62 -5v-355q0 -64 28 -86q-9 -39 -42 -63q-71 9 -97 71q-77 -72 -161 -72q-67 0 -101.5 46.5t-34.5 122.5zM174 574.5q-36 34.5 -36 85t36 85t93 34.5
t93 -34.5t36 -85t-36 -85t-93 -34.5t-93 34.5zM217 660q0 -23 14 -38t36 -15t36 15t14 38t-14 38t-36 15t-36 -15t-14 -38z" />
    <glyph glyph-name="Ydieresis" unicode="&#x178;" horiz-adv-x="511" 
d="M309 477l82 206q21 5 55 5t59 -9l6 -8l-192 -457v-214q-25 -5 -64 -5t-63 5v218l-192 450q41 23 73 23t47 -12t27 -41l67 -164q25 -64 43 -132h6q13 53 46 135zM315 839q23 14 53.5 14t53.5 -14q10 -15 10 -45t-10 -44q-20 -14 -53.5 -14t-53.5 14q-12 15 -12 44t12 45z
M96 839q21 14 52.5 14t54.5 -14q11 -15 11 -45.5t-11 -43.5q-20 -14 -54 -14t-53 14q-10 14 -10 44t10 45z" />
    <glyph glyph-name="Zacute" unicode="&#x179;" horiz-adv-x="569" 
d="M60 129l241 351q18 27 79 103l-3 3q-57 -9 -155 -9h-154q-5 19 -5 46t9 60h424q18 -65 18 -85t-16 -43l-240 -348q-25 -39 -78 -102l3 -3q84 6 132 6h85q71 0 116 20q9 -29 9 -59q0 -69 -85 -69h-381q-15 60 -15 83t16 46zM176 790l211 127q17 -13 33 -42t19 -56
l-227 -91q-14 8 -24 26t-12 36z" />
    <glyph glyph-name="zacute" unicode="&#x17a;" horiz-adv-x="447" 
d="M49 112l146 197q22 30 80 95l-3 5q-56 -7 -129 -7h-95q-4 16 -4 39t7 55h340q17 -51 17 -71t-13 -39l-148 -198q-34 -48 -76 -95l3 -4q52 5 87 5h43q70 0 102 15q12 -32 12 -52q0 -57 -72 -57h-300q-15 45 -15 65.5t18 46.5zM143 588l148 163q26 -9 49.5 -30.5
t31.5 -46.5l-177 -135q-37 11 -52 49z" />
    <glyph glyph-name="Zdotaccent" unicode="&#x17b;" horiz-adv-x="569" 
d="M60 129l241 351q18 27 79 103l-3 3q-57 -9 -155 -9h-154q-5 19 -5 46t9 60h424q18 -65 18 -85t-16 -43l-240 -348q-25 -39 -78 -102l3 -3q84 6 132 6h85q71 0 116 20q9 -29 9 -59q0 -69 -85 -69h-381q-15 60 -15 83t16 46zM223 756q-10 25 -10 51t10 49q24 13 64.5 13
t61.5 -13q10 -23 10 -49t-10 -51q-24 -13 -64.5 -13t-61.5 13z" />
    <glyph glyph-name="zdotaccent" unicode="&#x17c;" horiz-adv-x="447" 
d="M49 112l146 197q22 30 80 95l-3 5q-56 -7 -129 -7h-95q-4 16 -4 39t7 55h340q17 -51 17 -71t-13 -39l-148 -198q-34 -48 -76 -95l3 -4q52 5 87 5h43q70 0 102 15q12 -32 12 -52q0 -57 -72 -57h-300q-15 45 -15 65.5t18 46.5zM162 586q-10 23 -10 49.5t10 49.5
q26 14 64.5 14t61.5 -14q10 -23 10 -49.5t-10 -49.5q-23 -14 -64.5 -14t-61.5 14z" />
    <glyph glyph-name="Zcaron" unicode="&#x17d;" horiz-adv-x="569" 
d="M60 129l241 351q18 27 79 103l-3 3q-57 -9 -155 -9h-154q-5 19 -5 46t9 60h424q18 -65 18 -85t-16 -43l-240 -348q-25 -39 -78 -102l3 -3q84 6 132 6h85q71 0 116 20q9 -29 9 -59q0 -69 -85 -69h-381q-15 60 -15 83t16 46zM168 903l115 -75l117 84q15 -5 32 -20t21 -32
l-117 -117q-25 -6 -52 -6t-55 5l-112 108q5 18 20.5 32.5t30.5 20.5z" />
    <glyph glyph-name="zcaron" unicode="&#x17e;" horiz-adv-x="447" 
d="M49 112l146 197q22 30 80 95l-3 5q-56 -7 -129 -7h-95q-4 16 -4 39t7 55h340q17 -51 17 -71t-13 -39l-148 -198q-34 -48 -76 -95l3 -4q52 5 87 5h43q70 0 102 15q12 -32 12 -52q0 -57 -72 -57h-300q-15 45 -15 65.5t18 46.5zM130 736l93 -89l100 97q35 -13 56 -50
l-107 -135q-22 -8 -36 -8q-42 0 -67 7l-95 126q8 18 24.5 32.5t31.5 19.5z" />
    <glyph glyph-name="dotlessj" unicode="&#x237;" horiz-adv-x="288" 
d="M219 399v-377q0 -87 -12.5 -125t-30.5 -57q-37 -41 -120 -60q-30 27 -35 76q43 21 59 46t16 77v374q0 54 -45 54h-21q-5 17 -5 43t5 45q40 4 82 4h17q42 0 66 -26.5t24 -73.5z" />
    <glyph glyph-name="circumflex" unicode="&#x2c6;" horiz-adv-x="398" 
d="M295 548l-93 90l-99 -96q-37 15 -56 50l106 134q23 8 49 8t54 -7l95 -126q-15 -37 -56 -53z" />
    <glyph glyph-name="caron" unicode="&#x2c7;" horiz-adv-x="398" 
d="M104 736l93 -89l100 97q35 -13 56 -50l-107 -135q-22 -8 -36 -8q-42 0 -67 7l-95 126q8 18 24.5 32.5t31.5 19.5z" />
    <glyph glyph-name="dotaccent" unicode="&#x2d9;" horiz-adv-x="398" 
d="M136 586q-10 23 -10 49.5t10 49.5q26 14 64.5 14t61.5 -14q10 -23 10 -49.5t-10 -49.5q-23 -14 -64.5 -14t-61.5 14z" />
    <glyph glyph-name="ring" unicode="&#x2da;" horiz-adv-x="398" 
d="M106 574.5q-36 34.5 -36 85t36 85t93 34.5t93 -34.5t36 -85t-36 -85t-93 -34.5t-93 34.5zM149 660q0 -23 14 -38t36 -15t36 15t14 38t-14 38t-36 15t-36 -15t-14 -38z" />
    <glyph glyph-name="tilde" unicode="&#x2dc;" horiz-adv-x="398" 
d="M206 572l-50 25q-16 9 -33 9t-36 -25l-10 -14q-18 1 -35.5 11.5t-23.5 26.5l8 20q16 36 44 57.5t59 21.5t63 -16l50 -26q18 -9 34 -9t35 25l10 14q18 -1 35 -11.5t24 -26.5l-8 -20q-16 -37 -44.5 -58t-60 -21t-61.5 17z" />
    <glyph glyph-name="mu" unicode="&#x3bc;" horiz-adv-x="553" 
d="M480 496v-355q0 -64 28 -86q-11 -40 -43 -63q-65 9 -92 63q-44 -64 -118 -64q-38 0 -70 21v-147q0 -42 -12 -63t-51.5 -21t-70.5 25q19 32 19 95v595q28 5 60.5 5t62.5 -5v-318q2 -38 22 -60t54 -22q51 0 87 50v350q28 5 61 5t63 -5z" />
    <glyph glyph-name="germandbls.cap" unicode="&#x1e9e;" horiz-adv-x="639" 
d="M101 0v379l-86 -1q-5 23 -5 48.5t5 48.5l86 -1v29q0 95 61.5 145.5t166 50.5t167.5 -55t63 -148q0 -35 -16 -77h-2l2 -1q-37 -8 -56 -27.5t-19 -41t31 -48.5l37 -34q73 -70 73 -135t-53 -105.5t-130 -40.5t-137 29q1 21 12 47t26 40q39 -21 75 -21t56 14.5t20 40.5
t-36 59l-41 36q-64 58 -64 112q0 35 25 67.5t68 50.5q3 16 3 32q0 48 -27.5 79.5t-77.5 31.5q-101 0 -101 -114v-490q-30 -5 -62 -5t-64 5z" />
    <glyph glyph-name="endash" unicode="&#x2013;" horiz-adv-x="540" 
d="M477 216h-413q-5 21 -5 49t5 49h413q5 -21 5 -49t-5 -49z" />
    <glyph glyph-name="emdash" unicode="&#x2014;" horiz-adv-x="805" 
d="M728 216h-651q-5 21 -5 49t5 49h651q5 -21 5 -49t-5 -49z" />
    <glyph glyph-name="quoteleft" unicode="&#x2018;" horiz-adv-x="244" 
d="M53 513q-12 28 -12 71q0 66 38 117.5t110 74.5q15 -7 22.5 -22.5t7.5 -24.5v-12q-29 -12 -52 -34t-24 -51q34 -5 43 -12q10 -18 10 -54t-10 -53q-28 -16 -69 -16t-64 16z" />
    <glyph glyph-name="quoteright" unicode="&#x2019;" horiz-adv-x="244" 
d="M191 760q12 -32 12 -71q0 -66 -38 -117.5t-110 -74.5q-16 7 -23 22t-7 23.5v12.5q73 31 76 85q-36 7 -44 13q-10 22 -10 56t10 51q28 15 69.5 15t64.5 -15z" />
    <glyph glyph-name="quotesinglbase" unicode="&#x201a;" horiz-adv-x="244" 
d="M193 111q11 -29 11 -71q0 -67 -37.5 -118.5t-110.5 -74.5q-15 8 -22.5 23t-7.5 24v12q29 12 52.5 34t24.5 51q-33 4 -44 13q-10 17 -10 53t10 54q26 15 68.5 15t65.5 -15z" />
    <glyph glyph-name="quotedblleft" unicode="&#x201c;" horiz-adv-x="454" 
d="M51 513q-12 28 -12 71q0 66 38 117.5t110 74.5q15 -7 22.5 -22.5t7.5 -24.5v-12q-29 -12 -52 -34t-24 -51q34 -5 43 -12q10 -18 10 -54t-10 -53q-28 -16 -69 -16t-64 16zM261 513q-12 28 -12 71q0 66 38 117.5t110 74.5q15 -7 22.5 -22.5t7.5 -24.5v-12q-29 -12 -52 -34
t-24 -51q34 -5 43 -12q10 -18 10 -54t-10 -53q-28 -16 -69 -16t-64 16z" />
    <glyph glyph-name="quotedblright" unicode="&#x201d;" horiz-adv-x="454" 
d="M194 760q12 -32 12 -71q0 -66 -38 -117.5t-110 -74.5q-16 7 -23 22t-7 23.5v12.5q73 31 76 85q-36 7 -44 13q-10 22 -10 56t10 51q28 15 69.5 15t64.5 -15zM404 760q12 -32 12 -71q0 -66 -38 -117.5t-110 -74.5q-16 7 -23 22t-7 23.5v12.5q73 31 76 85q-36 7 -44 13
q-10 22 -10 56t10 51q28 15 69.5 15t64.5 -15z" />
    <glyph glyph-name="quotedblbase" unicode="&#x201e;" horiz-adv-x="454" 
d="M193 111q11 -29 11 -71q0 -67 -37.5 -118.5t-110.5 -74.5q-15 8 -22.5 23t-7.5 24v12q29 12 52.5 34t24.5 51q-33 4 -44 13q-10 17 -10 53t10 54q26 15 68.5 15t65.5 -15zM403 111q11 -29 11 -71q0 -67 -37.5 -118.5t-110.5 -74.5q-15 8 -22.5 23t-7.5 24v12
q29 12 52.5 34t24.5 51q-33 4 -44 13q-10 17 -10 53t10 54q26 15 68.5 15t65.5 -15z" />
    <glyph glyph-name="bullet" unicode="&#x2022;" horiz-adv-x="453" 
d="M120 179q-16 35 -16 90t16 93q42 25 108.5 25t106.5 -25q16 -38 16 -93t-16 -90q-35 -25 -106.5 -25t-108.5 25z" />
    <glyph glyph-name="guilsinglleft" unicode="&#x2039;" horiz-adv-x="338" 
d="M299 414l-132 -157l137 -161q-6 -19 -27 -38.5t-42 -25.5l-200 186q-6 15 -6 37t6 37l197 187q21 -6 41 -25.5t26 -39.5z" />
    <glyph glyph-name="guilsinglright" unicode="&#x203a;" horiz-adv-x="338" 
d="M39 97l132 157l-137 161q7 19 28 38.5t42 25.5l199 -186q7 -15 7 -37t-7 -37l-196 -187q-21 6 -41 25.5t-27 39.5z" />
    <glyph glyph-name="fraction" unicode="&#x2044;" horiz-adv-x="249" 
d="M-124 0l377 683q25 6 64 6t56 -6l-377 -683q-25 -6 -64 -6t-56 6z" />
    <glyph glyph-name="foursuperior" unicode="&#x2074;" horiz-adv-x="420" 
d="M219 406l-46 -1h-114q-22 37 -22 58t14 52l116 255h19t39 -5.5t41 -17.5l-66 -144q-34 -77 -61 -112l2 -2q35 4 78 4v46q0 35 19 55t51 20h27l3 -4v-117h57q4 -15 4 -38t-8 -49h-53v-74q-19 -5 -49 -5t-51 5v74z" />
    <glyph glyph-name="Euro" unicode="&#x20ac;" horiz-adv-x="564" 
d="M494 503q-78 57 -148 57q-96 0 -120 -120h188q4 -21 4 -40.5t-4 -39.5h-198v-74h198q4 -21 4 -40.5t-4 -39.5h-188q24 -118 120 -118q70 0 148 57q45 -26 54 -75q-100 -84 -219 -84q-189 0 -229 220h-80q-5 19 -5 39.5t5 40.5h72q-1 12 -1 36.5t1 37.5h-72q-5 19 -5 39.5
t5 40.5h80q38 222 229 222q119 0 219 -84q-4 -21 -19.5 -42.5t-34.5 -32.5z" />
    </font>
</defs>
</svg>
